<?xml version="1.0" encoding="UTF-8"?>
<svg id="Layer_1" xmlns="http://www.w3.org/2000/svg" version="1.1" viewBox="0 0 669.59 153.97">
  <!-- Generator: Adobe Illustrator 30.0.0, SVG Export Plug-In . SVG Version: 2.1.1 Build 123)  -->
  <defs>
    <style>
      .st0 {
        fill: #836049;
      }

      .st1 {
        display: none;
      }
    </style>
  </defs>
  <g class="st1">
    <path class="st0" d="M139.43-150.92c-6.86,6.82-15.78,15.81-22.37,15.81-5.63,0-8.65-3.92-8.65-10.88,0-6.38,2.2-14.79,5.22-23.2-7.41.43-16.74,2.03-24.7,4.35-8.37,29.29-32.11,58.87-55.03,58.87-10.29,0-16.88-5.51-16.88-12.76,0-18.12,32.25-37.12,63.27-46.4,1.65-6.81,2.61-13.48,2.61-19.43,0-17.84-6.04-26.39-21.68-26.39-17.7,0-45.98,17.69-45.98,39.73,0,11.17,8.1,16.24,15.92,16.24,14.69,0,25.39-15.8,25.39-25.67,0-5.66-2.33-6.96-2.33-9.43,0-1.31,1.37-2.9,2.47-2.9,1.24,0,2.75,3.05,2.75,9.28,0,14.21-12.63,30.6-28.68,30.6-8.51,0-17.43-5.51-17.43-18.27,0-24.07,28.27-44.08,52.56-44.08,15.1,0,26.49,9.43,26.49,27.12,0,6.67-1.1,13.92-2.88,21.32,8.37-2.17,17.7-3.48,24.7-3.92,3.98-11.17,9.47-23.64,14.55-31.32,1.78-2.75,3.43-5.22,5.63-5.22,1.65,0,4.39,3.48,4.39,5.07,0,1.74-1.65,2.18-4.94,6.09-3.98,4.79-9.47,14.79-13.04,25.38,8.1.73,10.84,4.35,10.84,6.24,0,.58-.27.87-.69.87-.27,0-.69-.29-.69-1.02,0-1.88-3.16-4.35-9.88-4.64-2.61,8.12-4.67,15.95-4.67,22.19,0,4.93,1.78,7.98,4.67,7.98,5.76,0,12.08-6.24,18.39-12.47l.69.87h-.02ZM79.73-162.66c-29.64,9.86-57.78,29-57.78,45.24,0,5.51,4.39,9.86,11.25,9.86,21.55,0,39.53-28.57,46.53-55.1Z"/>
    <path class="st0" d="M184.17-150.92c-6.86,6.82-13.31,10.73-19.9,10.73-3.98,0-7.14-2.32-7.14-6.96,0-2.03.41-4.21,1.1-5.8-7,8.41-14.14,13.92-18.67,13.92-2.33,0-4.53-1.89-4.53-4.79,0-6.38,8.37-11.46,8.37-18.85,0-.87.55-2.03,1.37-2.03,1.92,0,4.8,1.88,4.8,4.64,0,4.64-7.27,10.44-7.27,15.52,0,.87.69,1.6,1.65,1.6,1.78,0,7.27-4.21,13.72-12.18,3.16-3.77,4.53-5.37,6.18-5.37,1.51,0,2.88,1.01,2.88,2.61,0,1.45-.55,2.46-1.37,3.62-1.65,2.46-2.47,4.35-2.47,7.25,0,2.46,1.37,4.21,4.8,4.21s9.47-2.75,15.78-8.99l.69.87h0Z"/>
    <path class="st0" d="M236.45-150.92c-6.86,6.82-12.49,11.46-17.02,11.46-3.43,0-6.18-2.46-6.18-5.37,0-4.79,2.74-7.83,2.74-10.44,0-.87-.41-1.3-1.1-1.3-1.65,0-5.22,4.21-9.2,11.6-1.78,3.19-2.74,4.21-4.12,4.21-2.2,0-3.43-1.3-3.43-3.04,0-3.48,4.94-12.33,4.94-14.79,0-1.16-.27-1.74-1.1-1.74-5.9,0-16.47,21.32-19.49,21.32-1.51,0-3.16-1.16-3.16-3.33s6.04-10.44,6.04-18.56c0-1.6.55-2.76,2.06-2.76,2.47,0,4.53,1.89,4.53,3.77,0,3.19-1.37,5.66-3.16,10.73,3.29-4.5,10.16-13.78,15.37-13.78,2.2,0,4.25,1.74,4.25,4.06,0,3.19-2.2,7.25-3.16,11.31,3.71-5.95,7.82-12.47,12.21-12.47,1.92,0,3.71,1.16,3.71,3.77s-1.92,7.98-1.92,10.58c0,1.89,1.37,2.76,2.75,2.76,2.74,0,7.55-2.61,13.72-8.85l.69.87h.03Z"/>
    <path class="st0" d="M291.9-150.92c-6.86,6.82-12.35,12.18-17.16,12.18s-6.18-2.9-6.18-5.95c0-3.77,1.51-7.11,1.51-10.73,0-.72-.41-1.16-.82-1.16-1.92,0-5.49,4.5-10.71,11.31-1.37,1.74-2.2,3.62-4.12,3.62-1.65,0-3.02-1.45-3.02-3.19,0-1.16.41-1.74,1.37-3.48,2.2-3.92,4.53-8.85,4.53-10.73,0-.73-.41-1.31-1.1-1.31-2.47,0-11.39,10.15-16.19,16.82-2.47,3.48-2.74,4.79-4.53,4.79-2.06,0-3.71-2.03-3.71-4.21,0-4.21,6.59-12.04,7.82-17.98.27-1.74.69-2.76,2.06-2.76,2.2,0,4.12,2.47,4.12,4.06,0,3.33-4.8,9.42-6.72,14.65,5.08-6.67,14-18.13,19.76-18.13,2.06,0,3.84,1.74,3.84,4.21,0,2.9-2.61,7.25-4.8,12.33,6.18-7.97,10.57-12.91,13.59-12.91,1.78,0,3.29,1.16,3.29,4.06s-.69,5.51-.69,7.69c0,3.19.82,5.22,4.53,5.22,2.47,0,6.45-3.04,12.63-9.28l.69.87h.01Z"/>
    <path class="st0" d="M317.97-150.92c-6.86,6.82-14.41,12.18-21.68,12.18-3.98,0-7.69-1.74-7.69-5.95,0-5.22,5.49-11.02,6.18-15.81.41-2.17,1.92-3.04,3.43-3.04,1.92,0,3.16,1.45,3.16,3.04,0,3.48-6.04,8.7-6.04,15.23,0,2.61,1.51,3.92,4.53,3.92,4.53,0,11.25-4.21,17.43-10.44l.69.87h0ZM309.33-178.61c0,2.03-2.61,5.07-4.8,5.07-1.23,0-2.47-1.01-2.47-2.46,0-2.61,3.02-5.36,4.67-5.36,1.37,0,2.61,1.16,2.61,2.75h-.01Z"/>
    <path class="st0" d="M347.48-134.24c0,.58-1.92,2.03-5.63,2.03-5.08,0-9.61-2.9-9.61-9.28s6.45-12.47,6.45-14.93c0-.87-.27-1.45-1.23-1.45-2.2,0-9.88,4.93-16.61,13.92-2.88,3.77-3.02,4.93-4.67,4.93-1.78,0-3.57-1.6-3.57-3.92,0-4.5,5.35-10.44,6.86-16.82.41-1.74.96-3.92,2.88-3.92s3.71,1.74,3.71,3.77c0,2.46-5.76,11.46-5.9,14.07,7.41-9.43,16.88-15.66,20.59-15.66,3.16,0,4.53,1.88,4.53,4.06,0,3.48-6.59,10.3-6.59,16.82,0,4.5,1.78,6.38,5.49,6.38,1.37,0,2.2-.58,2.75-.58.41,0,.55.14.55.58h0Z"/>
    <path class="st0" d="M387-150.92c-2.88,2.9-5.76,5.8-9.88,9.57-.96,1.01-2.06,1.88-3.02,2.75v1.59c0,23.2-10.98,36.4-21.96,36.4-6.04,0-8.92-3.33-8.92-7.69,0-8.99,13.17-17.69,25.39-27.41v-1.45c0-4.35-.55-10.44-1.37-11.02-4.25,3.19-9.47,7.69-14.14,7.69-2.2,0-4.25-1.74-4.25-4.35,0-8.12,13.04-17.69,20.59-17.69,5.22,0,7.69,2.75,7.69,5.95,0,1.3-.69,2.17-1.65,2.17-.69,0-1.23-.43-1.23-1.16,0-.58.27-.72.27-1.16,0-1.45-1.23-2.32-2.61-2.32-6.04,0-17.43,9.57-17.43,14.36,0,.87.55,1.59,1.37,1.59,2.06,0,6.31-3.04,10.43-6.67,1.51-1.31,3.57-3.62,4.67-3.62s1.51.87,1.78,1.88c.69,3.04,1.1,6.67,1.23,11.46l2.47-2.17c4.12-3.77,7.27-6.67,9.88-9.57l.69.87h0ZM368.61-134.09c-11.67,9.28-23.06,16.97-23.06,24.8,0,2.61,2.2,4.79,4.94,4.79,8.37,0,17.16-9.43,18.12-29.58h0Z"/>
    <path class="st0" d="M394.41-136.56c-2.47,0-4.53-1.88-4.53-3.92,0-4.35,7.96-10.15,17.02-14.94,0-2.17-.41-2.9-1.78-2.9-1.65,0-8.78,3.19-14,11.89-1.51,2.32-1.92,2.75-3.02,2.75-1.51,0-2.33-2.46-2.33-6.24,0-23.35,12.9-49.74,23.33-49.74,2.74,0,4.53,1.45,4.53,4.5,0,8.7-11.25,29.58-22.78,41.91-.14,1.02-.14,2.03-.14,4.21,5.21-7.54,13.04-12.33,17.29-12.33,2.47,0,4.39,2.03,4.39,4.5,0,8.85-9.06,20.3-17.98,20.3h0ZM390.98-155.27c9.61-11.6,20.17-31.03,20.17-38.72,0-1.45-.82-2.03-1.92-2.03-5.21,0-14.96,18.85-18.25,40.75ZM406.76-153.96c-7.69,4.35-14.55,9.42-14.55,12.47,0,.58.55,1.31,1.51,1.31,4.67,0,11.25-6.82,13.04-13.78h0Z"/>
    <path class="st0" d="M451.91-150.92c-6.86,6.82-13.59,10.44-20.04,10.44-4.94,0-8.92-2.46-8.92-6.96s4.39-9.57,4.39-12.91c0-.72-.41-1.16-1.24-1.16-2.88,0-8.37,1.88-14,4.64l-.14-1.3c7-3.33,13.59-5.51,16.33-5.51,2.88,0,5.08,1.16,5.08,3.92,0,3.63-3.57,7.11-3.57,12.04,0,2.9,1.92,4.93,5.35,4.93,4.53,0,9.74-2.75,16.06-8.99l.69.87h.01ZM440.11-180.5c0,1.31-2.61,5.36-5.35,5.36-1.1,0-1.78-.72-1.78-1.88,0-2.9,3.16-5.95,4.67-5.95,1.37,0,2.47,1.31,2.47,2.47h-.01Z"/>
    <path class="st0" d="M454.11-154.98c-1.1-.87-2.33-2.17-2.33-4.06,0-3.19,3.57-6.09,6.59-6.09,1.51,0,2.47,1.16,2.47,2.76,0,1.3-1.1,3.33-3.43,6.24,1.37,3.33,5.22,2.9,5.22,6.09,0,1.88-1.92,3.48-1.92,7.11,0,1.3,1.1,2.17,2.47,2.17,5.49,0,11.25-4.79,17.57-11.02l.69.87c-6.86,6.82-14.69,13.34-21.27,13.34-3.16,0-5.76-1.74-5.76-4.64,0-3.48,3.02-5.8,3.02-8.7,0-1.45-.82-1.74-2.47-3.33l-3.29,3.48-.69-.87,3.16-3.34h-.03Z"/>
    <path class="st0" d="M503.51-153.53c0,6.96,2.47,9.14,5.08,9.14,1.1,0,2.06-.44,2.61-.87.41-.29.69-.58.96-.58s.55.29.55.58c0,.43-.27.87-.69,1.3-1.1,1.16-3.29,3.04-6.45,3.04-3.43,0-6.86-2.32-7.27-9.42-7.41,7.4-13.72,12.04-17.29,12.04-2.33,0-4.12-1.59-4.12-4.5,0-8.12,10.71-19.29,18.53-19.29.82,0,2.61.58,3.29,1.01,2.61-18.85,13.72-38.14,21.41-38.14,1.92,0,4.25,2.46,4.25,5.22,0,9.57-12.76,27.55-20.72,37.7-.14,1.01-.14,1.88-.14,2.75v.02ZM498.44-159.04c-.96-.58-1.37-.73-2.33-.73-4.94,0-13.04,9.86-13.04,16.1,0,1.02.55,1.45,1.37,1.45,2.06,0,6.72-3.04,13.72-10.15,0-2.17,0-4.21.27-6.67h.01ZM503.79-158.75c7.27-9.57,18.94-26.97,18.94-34.66,0-1.02-.69-2.03-1.51-2.03-5.08,0-15.23,21.17-17.43,36.69Z"/>
    <path class="st0" d="M612.48-150.92c-6.73,6.82-27.31,28.42-49.41,28.42-10.98,0-23.61-4.79-23.61-23.06,0-34.08,40.07-70.04,66.84-70.04,10.71,0,14.82,5.22,14.82,11.31,0,14.21-15.65,31.61-30.74,31.61-5.63,0-8.1-1.74-8.1-3.62,0-1.16,1.51-2.32,2.75-2.32,2.06,0,2.88,3.34,8.92,3.34,10.16,0,24.84-15.66,24.84-27.84,0-4.93-2.88-9.57-11.25-9.57-23.47,0-58.88,36.4-58.88,65.83,0,15.51,8.37,19.87,17.98,19.87,20.04,0,38.98-18.56,45.15-24.8l.69.87h0Z"/>
    <path class="st0" d="M651.86-150.92c-6.86,6.82-12.35,10.73-17.16,10.73-4.25,0-8.23-2.75-8.37-8.12-4.94,4.93-11.25,9.86-14.82,9.86-2.33,0-3.98-1.74-3.98-3.92,0-7.83,12.63-21.17,21.68-21.17,5.49,0,7.27,4.06,7.27,5.66,0,1.88-1.23,3.19-2.61,4.35.14.15.27.73.27,1.31,0,1.88-.69,2.32-.69,4.79,0,2.17.96,4.35,4.25,4.35,2.74,0,7.27-2.46,13.45-8.7l.69.87h.02ZM633.2-154.54c.82-1.16,1.1-1.88,1.1-2.9,0-1.16-.96-2.17-2.75-2.17-7.41,0-17.43,11.89-17.43,16.39,0,.58.41,1.16,1.24,1.16,1.65,0,5.63-2.76,10.98-8.27,1.92-2.03,4.12-4.64,5.35-4.64.55,0,1.24.15,1.51.44h0Z"/>
    <path class="st0" d="M644.45-143.96c0-1.59,2.06-4.21,3.43-4.35,3.71-25.67,16.74-46.11,23.33-46.11,1.65,0,3.43,2.17,3.43,4.35,0,8.7-11.12,27.26-20.59,37.56-.69,3.19-.82,3.92-1.24,6.67,1.24,1.16,5.35,4.93,12.76,4.93,3.71,0,5.9-.43,9.19-1.74l.55,1.16c-3.16,1.31-6.04,2.18-11.39,2.18s-9.61-1.6-10.98-2.18c0,0,4.53,4.93,4.53,14.5,0,16.97-5.21,26.1-9.33,26.1-3.02,0-4.53-2.9-4.53-9.28,0-10.29,1.51-21.75,3.57-30.74-1.51-.72-2.75-1.74-2.75-3.04h.02ZM649.53-112.78c0,6.24.69,7.11,1.65,7.11.82,0,4.8-4.93,4.8-21.17,0-8.55-3.71-12.91-3.71-12.91,0,0-2.75,16.82-2.75,26.97h.01ZM654.75-155.27c8.1-10.15,18.12-27.41,18.12-34.37,0-.58-.69-1.31-1.23-1.31-3.16,0-12.21,15.95-16.88,35.67h-.01Z"/>
    <path class="st0" d="M686.86-140.91c4.25,0,6.73-2.17,11.12-5.94.69-.58.96-.87,1.23-.87.41,0,.55.29.55.58s-.27.72-.96,1.45c-4.25,4.5-9.2,7.83-15.23,7.83-4.67,0-9.33-1.89-9.33-7.69,0-8.27,10.02-16.53,16.06-16.53,2.47,0,3.84,2.32,3.84,4.21,0,3.92-7.14,9.71-12.76,13.63.55,1.74,2.33,3.33,5.49,3.33h0ZM681.09-145.84c5.08-3.33,11.25-8.7,11.25-12.04,0-.73-.55-1.6-1.24-1.6-3.16,0-10.02,6.96-10.02,13.63h.01Z"/>
  </g>
  <path class="st0" d="M656.77,21.87s3.52-5.4,2.37-7.53c0,0,2.33-4.93,1.42-6.63,0,0,3.19-7.05,3-7.53-.56-1.44-8.73,5.83-18.59,17.15-3.8,4.36-6.66,9.65-11.55,17.44,0,0,7.76-12.92,11.74-18.59,1.13-1.62,0-1.71-.18-2.99,0,0,.23-3.99-1.39-5.1,0,0-.88-7.03-2.45-7.32-.36-.07-1.9,2.16-2.44,2.93-3.01,4.37-8.82,23.69-8,30.55,0,0-2.81,1.85-5.57-1.2-2.75-3.05-7.47-11.68-16.5,1.61,0,0-17.76,5.7-18.65,7.35,0,0,17.52-4.87,18.33-4.51s9.85,3.61,10.07,4.36c1.49,5.03,10.66,17.78,26.04,14.47,0,0,9.78,21.07,14.24,20.45s.23-5.11.23-5.11c0,0,2.04,2.29,3.22,2.26s1.01-4.4.03-5.14,2.66.49,3.2,0,.82-4.03-1.02-4.84,2.69.54,3.14-.09-1.06-3.81-2.5-4.63,2.47.09,2.88-.96c.87-2.28-8.91-6.84-13.9-9.86-5.29-3.2-6.41-6.32-5.63-6.74s1.59-1.65,1.34-2.11,2.7-1.23,2.13-4.52c0,0,3.61-2.16,2.44-6.02,0,0,3.72-3.66,2.57-7.14h0Z"/>
  <g>
    <path class="st0" d="M17.64,100.25c.21-1.98.64-3.96.72-5.94l-.14-1.83c0-.37-.43-.66-.72-.51-1.72.73-3.58,1.17-5.29,1.98l-.86.37c-.64.37-1.22.81-1.57,1.47l-.57.66c-.29.29-.64.37-1,.29-.29-.07-.57-.15-.86-.29-1.22-.51-1.36-1.03-.86-2.27.43-1.03,1-1.83,1.93-2.34l.36-.29c2.79-1.39,5.44-3.15,8.51-3.88.14,0,.29-.07.43-.15.29-.15.43-.37.43-.66v-1.1c0-.37-.14-.73-.07-1.1.29-1.17.14-2.35-.07-3.52-.07-.51-.07-1.03-.07-1.54v-9.23c-.14-1.39-.07-2.79,0-4.18.21-3.15.72-6.23,1.93-9.16.21-.51.43-1.1.57-1.69.14-.44-.43-1.1-.93-1.03-.14,0-.29,0-.43.07-.86.37-1.72.73-2.65.81-.29,0-.57.15-.86.29-.57.29-1.22.44-1.86.59-1.72.44-3.29,1.1-4.58,2.42-.43.44-1,.81-1.5,1.25-1.43,1.25-2.29,2.79-2.79,4.62-.43,1.54-.36,3.08-.29,4.62,0,.37.14.73.29,1.1.29.59.79.88,1.43.95h.43c1.22,0,1.57-.44,1.43-1.76v-.44c0-.15.07-.29.14-.44.36-.59,1.43-.66,1.86-.15.57.66.86,1.39.64,2.27-.21,1.03-.57,1.98-1.15,2.86-.21.37-.57.59-1,.73-1.07.44-2.22.51-3.36.37-.79-.07-1.5-.44-2-1.17-.36-.59-.72-1.17-.93-1.76-.5-1.32-.86-2.71-1.15-4.1-.14-.73-.21-1.47-.07-2.2.21-1.25.43-2.49.93-3.66.79-1.76,1.79-3.37,3.22-4.69,1.22-1.17,2.5-2.27,4.01-3.08.21-.07.43-.15.64-.29,2.29-1.32,4.79-2.05,7.3-2.79,1.86-.51,3.79-.88,5.65-1.47,1.15-.37,2.22-.81,3.15-1.54.72-.59,1.57-.73,2.43-.88.21-.07.43,0,.64,0s.57.29.64.51c.21,1.03.14,2.05-.5,2.93l-1.07,1.47c-.5.66-.86,1.39-1.07,2.2-.21.81-.5,1.54-.93,2.27-.29.51-.43,1.1-.57,1.69l-.36,1.98c-.36,1.47-.72,2.93-.64,4.47v.44c-.43,1.76-.29,3.52-.29,5.28,0,1.03.07,2.05.21,3.08.14,1.1.14,2.2.21,3.3.07.95.07,1.91.29,2.86.14.59.14,1.17.14,1.76,0,1.32.14,2.64.36,3.96.21,1.25.43,1.39,1.72,1.39,1.14,0,2.29-.07,3.43.29.21.07.43.07.64.07,2.58,0,5.01.73,7.51,1.1.43.07.86.22,1.29.22.93.07,1.86.15,2.79.44.21.07.43.07.64.07.29,0,.64-.29.64-.59.07-.37.14-.73.14-1.1,0-1.25.14-2.49.29-3.74l.43-3.74c.57-3.88,1.57-7.7,2.86-11.43.57-1.69,1.29-3.3,1.86-4.98,1.29-3.66,3.43-6.67,6.23-9.23.57-.51,1.22-.95,1.86-1.39.72-.51,1.5-.88,2.22-1.39,1.07-.66,2.22-.73,3.36-.51.43.07.72.73.43,1.03-1.22,1.25-2.36,2.57-3.65,3.81-1.57,1.47-2.93,3.08-3.86,5.06l-.21.44c-1.43,1.76-1.93,3.96-2.58,6.08-.21.81-.43,1.61-.72,2.35-.36.88-.57,1.83-.86,2.79-.14.51-.21,1.1-.43,1.54-.64,1.17-.79,2.49-1.07,3.81-.5,2.35-.93,4.69-1.22,7.04-.21,1.39-.14,2.79-.14,4.18,0,.29.29.59.57.59.36,0,.72.07,1.07,0,.93-.22,1.86-.29,2.79-.37.36,0,.72-.15,1.07-.22,1.29-.29,2.29-.95,2.86-2.2l.43-.81c.36-.51.86-.81,1.43-.95.64-.15,1.43.37,1.5.95v1.1c0,.66-.29,1.17-.72,1.61-.72.81-1.57,1.54-2.5,2.13-1.07.66-2.15,1.32-3.29,1.76-1.14.44-2.36.59-3.58.73l-1.07.15c-.29.07-.57.37-.57.66,0,.73-.14,1.47,0,2.2.29,1.76.36,3.59.86,5.28.36,1.17.72,2.27,1.14,3.37.64,1.83,1.79,3.37,3.01,4.84.64.81,1.5,1.32,2.36,1.83.21.15.5.22.79.22.93.15,1.86.07,2.79-.22,1.79-.59,3.36-1.54,4.72-2.79,1.5-1.32,2.72-2.86,3.86-4.54.43-.59.86-1.17,1.43-1.61.43-.37.72-.95,1.07-1.39.29-.37.72-.44,1.15-.22l.72.44c.29.22.43.73.29,1.03-.21.37-.43.81-.72,1.1-1,1.1-1.79,2.35-2.5,3.66-.21.44-.57.88-.93,1.25l-2.22,2.42c-.36.37-.79.73-1.22,1.03-.86.66-1.79,1.17-2.65,1.83-.5.37-1.22.51-1.79.73-2.15.88-4.22.73-6.3-.22-.43-.22-.86-.37-1.29-.51-.29-.15-.57-.22-.79-.37-.86-.66-1.72-1.32-2.5-2.05-.79-.73-1.43-1.61-2-2.56-1.57-2.86-2.5-5.94-3.15-9.16-.29-1.25-.5-2.49-.5-3.74,0-.66-.14-1.32-.29-1.98-.21-.88-.57-1.25-1.5-1.39-.36-.07-.72-.15-1.07-.15-.79,0-1.57-.15-2.36-.37-1.07-.29-2.15-.59-3.22-.51-.29,0-.57-.07-.86-.15-.57-.22-1.15-.29-1.72-.29-1,0-2,0-3-.29-.43-.15-.93-.15-1.36,0-.86.29-1.72.29-2.58.37-.57,0-.93.29-1.07.88-.29,1.03-.64,1.98-.86,3.01-.21.81-.5,1.54-.79,2.27-.57,1.47-1,2.93-1.5,4.4-.72,2.13-1.5,4.18-2.5,6.16-.14.37-.36.66-.43,1.03-.21.88-.5,1.69-1,2.42-.86,1.25-1.79,2.34-2.93,3.3-.36.29-.86.44-1.29.66-1.57.88-3.22.81-4.87.73-.36,0-.72-.22-1-.37-.57-.29-.79-.95-.5-1.54.07-.22.14-.44.29-.66.29-.51.64-.66,1-.29.64.59,1.29.59,2,.37.79-.22,1.43-.66,1.93-1.39.5-.66,1-1.32,1.36-2.05l.21-.44c1.36-2.2,2.07-4.62,2.5-7.11l.29-1.32.21-1.1-.21.51Z"/>
    <path class="st0" d="M89.75,102.52l-.21-.51c-.64.51-1.15,1.17-1.43,1.83-.5,1.25-1.29,2.2-2.08,3.23l-1.07,1.32c-.79,1.03-1.79,1.76-2.86,2.34-.36.22-.64.59-1.07.29-.36.07-.79.15-1.14.29-.79.29-1.57.29-2.36,0-.14-.07-.29-.15-.43-.15-1.29.07-2.22-.73-3.22-1.39-1.29-.88-2.36-1.98-3.29-3.3-1-1.47-1.79-3.08-2.29-4.76-.43-1.32-.64-2.71-.79-4.1,0-.29,0-.59.07-.81.14-.81.21-1.61.07-2.42,0-.15.07-.37.14-.51.21-.66.21-1.32.29-1.98,0-.37.14-.73.29-1.1.36-1.1.79-2.2,1.22-3.3.21-.59.5-1.17.79-1.76.64-1.32,1.36-2.64,2-4.03.21-.37.29-.81.43-1.25.29-.66.72-.81,1.29-.44l1.5,1.1c.14.07.21.22.29.37l.86,1.32c.07.15.14.29.14.44.29,1.39.64,2.71.36,4.18s-.72,2.86-1.14,4.25c-.14.51-.36,1.03-.79,1.47-.29.29-.43.66-.43,1.03,0,.51-.21.88-.5,1.25-.29.44-.43.95-.5,1.47-.07.37-.21.73-.36,1.1-.21.44-.43.88-.5,1.39-.07.51-.36,1.03-.36,1.54,0,.44.29.88.29,1.32,0,.51.14.95.36,1.39.14.22.29.44.36.66.21.88.79,1.54,1.36,2.2.86.95,1.93,1.54,3.22,1.76.29.07.57.15.86.07,1.22-.22,2.29-.81,3.22-1.69.5-.51.86-1.17,1.29-1.76.57-.81,1.15-1.61,1.79-2.42.29-.37.5-.73.64-1.17.14-.51.29-1.03.5-1.54.07-.29.14-.59.29-.81,1-1.47,1.43-3.15,2-4.76.29-.73.36-1.54.72-2.27.14-.29.21-.59.21-.88.07-1.61.57-3.15.79-4.76.07-.37.21-.81.21-1.17,0-.88.36-1.69.5-2.49.07-.37.29-.66.64-.81.07,0,.14-.07.21-.15.86-.51,1.14-.51,1.79.15.36.37.64.73,1.07.95.36.15.57.51.64.95l.21,1.25c.07.66,0,1.32-.29,1.98-.29.66-.43,1.32-.43,2.05,0,.37-.07.73-.14,1.1-.14.81-.36,1.61-.43,2.49-.07.81-.29,1.54-.72,2.2-.36.51-.5,1.03-.29,1.61.14.44.14.95.07,1.39-.21,1.25-.21,2.49,0,3.74.07.29.07.66.07,1.03,0,1.1.5,1.98,1.07,2.79.64.81,1.5,1.39,2.36,1.98.29.15.64.22.93.29,1.72.29,3.29,0,4.58-1.32,1.07-1.1,2.15-2.13,3.15-3.23.5-.51.93-1.1,1.22-1.76.43-.88.86-1.76,1-2.71.14-.66.57-1.1,1.22-1.39.43-.22.79-.07,1.07.22s.36.66.21,1.03l-.86,2.49-.5.88c-.29.51-.64.95-1.14,1.32-.79.59-1.22,1.47-1.86,2.2-.36.44-.57.95-.93,1.39-.29.37-.57.73-.93,1.03-.86.66-1.79,1.17-2.65,1.83-.57.44-1.22.66-1.86.73-1.07.07-2.15.15-3.15-.44-.72-.44-1.5-.66-2.29-.95-1.29-.51-2.22-1.47-3-2.49-.29-.37-.5-.81-.64-1.25l-.86-2.64h-.07Z"/>
    <path class="st0" d="M105.78,77.75c.93.29,1.72.88,2.36,1.61.72.81,1.36,1.69,2,2.57l.21.51c.21,1.03.43,2.05.72,3.08.14.59.14,1.25.64,1.76l.29-.22.21-.66c.72-2.79,1.93-5.35,3.58-7.7.21-.29.36-.66.5-1.03.5-1.1,1.22-2.05,2.29-2.71l.5-.44c1.29-.95,2.72-1.03,4.22-.51,1.15.37,2.08,1.03,2.93,1.91.72.81,1.36,1.61,1.86,2.56.57,1.1,1.22,2.2,1.22,3.52,0,.22.07.44.14.66l.21,1.54v.22c.43.81.43,1.69.57,2.56,0,.07.07.15.14.22.14-.22.29-.37.36-.59.72-1.39,1.65-2.64,2.58-3.88.86-1.1,1.79-2.13,2.72-3.15.36-.37.64-.73.93-1.1.29-.44.57-.81,1-1.17l2.36-1.98c1.29-1.03,2.72-1.61,4.36-1.69.57,0,1.15-.15,1.65.22.36.29.72.59,1,.95.43.51.79,1.1,1.14,1.69.07.15.14.37.29.51.57.51.79,1.25.93,1.98.14.66.36,1.32.21,2.05-.14.59-.07,1.25.07,1.83.29,1.03.07,2.05-.07,3.08-.14.95-.43,1.91-.57,2.86l-.64,3.81c0,.07,0,.22-.07.29-.57,1.47-.43,3.08-.79,4.62-.21.81-.29,1.69-.43,2.49-.21,1.1-.43,2.2-.43,3.3,0,.15,0,.29-.07.44-.29.73,0,1.39.21,2.05,1.15,0,2.15-.44,3.01-1.1.43-.29.79-.66,1.15-1.03,1.29-1.17,2.22-2.64,3.15-4.1.43-.73.86-1.47,1.36-2.13.93-1.32,1.79-2.71,2.58-4.18.43-.81,1.07-1.39,1.93-1.69.36-.15.64,0,.79.37.07.22.14.44.07.66-.14.88-.14,1.83-.72,2.64-.5.66-.93,1.39-1.36,2.13l-1.5,2.86-.72,1.1-.43.88-.57.95c-.57.59-1,1.25-1.43,1.98-.21.44-.5.88-.86,1.17-.79.66-1.15,1.69-2.08,2.2l-.21.22c-.5.81-1.36,1.1-2.08,1.54-.29.15-1.5.15-1.93,0-1.29-.37-2.29-1.17-3.15-2.2-.72-.95-1.22-2.05-1.43-3.22l-.29-1.32c0-.15-.07-.37-.07-.51.14-1.47.14-2.93.21-4.4.07-.73.21-1.47.36-2.2.14-.88.36-1.76.57-2.64.07-.15.14-.29.14-.44.07-1.47.57-2.86.86-4.25l1.22-6.16c.21-1.03.21-2.05.14-3.08-.07-.88-.36-1.61-1.15-2.2l-1.57.66c-.14.07-.29.15-.43.29-.57.73-1.29,1.25-2,1.83-.29.22-.5.51-.72.81-.5.66-.86,1.47-1.65,1.91-.57.88-1.5,1.47-2,2.49-.29.51-.72.95-1.07,1.47l-.79,1.32c-.21.37-.43.66-.72.95s-.5.66-.64,1.03l-1.07,3.3c-.43,1.17-.86,2.34-1.36,3.52-.14.44-.29.88-.21,1.32.07.66-.29,1.17-.64,1.69-.29.44-.72.66-1.22.66-.36,0-.72-.07-1.07-.07-1.07.07-1.79-1.03-1.72-1.98,0-.15.07-.29.07-.44,0-.22.07-.44.07-.66l-.29-2.64-.21-2.42c-.14-1.03-.29-1.98-.36-3-.07-.95-.14-1.91,0-2.86.14-1.25.14-2.42-.07-3.66-.21-1.03-.43-2.05-.72-3.08-.14-.51-.36-1.03-.57-1.47-.64-1.17-1.86-1.32-2.79-.29-.14.22-.29.44-.5.59-.29.22-.5.51-.72.81-.43.73-.72,1.54-1.43,2.05-.14.07-.21.29-.29.44l-.86,1.98c-.07.22-.14.44-.29.66-.36.66-.72,1.32-.72,2.13,0,.29-.14.59-.21.88-.5,1.39-.93,2.79-1.5,4.1-.29.59-.43,1.25-.57,1.91l-.43,1.98c-.07.51-.14,1.03-.14,1.54,0,1.17,0,2.34.14,3.52.14,1.1.07,2.2.07,3.3,0,.37,0,.73.07,1.03.21.95-.07,1.69-.79,2.27-.21.22-.43.59-.72.59-.43,0-.93-.15-1.29-.37-1-.59-1.79-1.39-1.93-2.71-.14-1.54-.36-3.08-.57-4.62-.21-1.83-.64-3.66-1-5.5l-.36-2.86-.43-3-.72-11.29Z"/>
    <path class="st0" d="M158.51,77.75c.93.29,1.72.88,2.36,1.61.72.81,1.36,1.69,2,2.57l.21.51c.21,1.03.43,2.05.72,3.08.14.59.14,1.25.64,1.76l.29-.22.21-.66c.72-2.79,1.93-5.35,3.58-7.7.21-.29.36-.66.5-1.03.5-1.1,1.22-2.05,2.29-2.71l.5-.44c1.29-.95,2.72-1.03,4.22-.51,1.15.37,2.08,1.03,2.93,1.91.72.81,1.36,1.61,1.86,2.56.57,1.1,1.22,2.2,1.22,3.52,0,.22.07.44.14.66l.21,1.54v.22c.43.81.43,1.69.57,2.56,0,.07.07.15.14.22.14-.22.29-.37.36-.59.72-1.39,1.65-2.64,2.58-3.88.86-1.1,1.79-2.13,2.72-3.15.36-.37.64-.73.93-1.1.29-.44.57-.81,1-1.17l2.36-1.98c1.29-1.03,2.72-1.61,4.36-1.69.57,0,1.14-.15,1.65.22.36.29.72.59,1,.95.43.51.79,1.1,1.14,1.69.07.15.14.37.29.51.57.51.79,1.25.93,1.98.14.66.36,1.32.21,2.05-.14.59-.07,1.25.07,1.83.29,1.03.07,2.05-.07,3.08-.14.95-.43,1.91-.57,2.86l-.64,3.81c0,.07,0,.22-.07.29-.57,1.47-.43,3.08-.79,4.62-.21.81-.29,1.69-.43,2.49-.21,1.1-.43,2.2-.43,3.3,0,.15,0,.29-.07.44-.29.73,0,1.39.21,2.05,1.15,0,2.15-.44,3.01-1.1.43-.29.79-.66,1.15-1.03,1.29-1.17,2.22-2.64,3.15-4.1.43-.73.86-1.47,1.36-2.13.93-1.32,1.79-2.71,2.58-4.18.43-.81,1.07-1.39,1.93-1.69.36-.15.64,0,.79.37.07.22.14.44.07.66-.14.88-.14,1.83-.72,2.64-.5.66-.93,1.39-1.36,2.13l-1.5,2.86-.72,1.1-.43.88-.57.95c-.57.59-1,1.25-1.43,1.98-.21.44-.5.88-.86,1.17-.79.66-1.15,1.69-2.08,2.2l-.21.22c-.5.81-1.36,1.1-2.08,1.54-.29.15-1.5.15-1.93,0-1.29-.37-2.29-1.17-3.15-2.2-.72-.95-1.22-2.05-1.43-3.22l-.29-1.32c0-.15-.07-.37-.07-.51.14-1.47.14-2.93.21-4.4.07-.73.21-1.47.36-2.2.14-.88.36-1.76.57-2.64.07-.15.14-.29.14-.44.07-1.47.57-2.86.86-4.25l1.22-6.16c.21-1.03.21-2.05.14-3.08-.07-.88-.36-1.61-1.14-2.2l-1.57.66c-.14.07-.29.15-.43.29-.57.73-1.29,1.25-2,1.83-.29.22-.5.51-.72.81-.5.66-.86,1.47-1.65,1.91-.57.88-1.5,1.47-2,2.49-.29.51-.72.95-1.07,1.47l-.79,1.32c-.21.37-.43.66-.72.95s-.5.66-.64,1.03l-1.07,3.3c-.43,1.17-.86,2.34-1.36,3.52-.14.44-.29.88-.21,1.32.07.66-.29,1.17-.64,1.69-.29.44-.72.66-1.22.66-.36,0-.72-.07-1.07-.07-1.07.07-1.79-1.03-1.72-1.98,0-.15.07-.29.07-.44,0-.22.07-.44.07-.66l-.29-2.64-.21-2.42c-.14-1.03-.29-1.98-.36-3-.07-.95-.14-1.91,0-2.86.14-1.25.14-2.42-.07-3.66-.21-1.03-.43-2.05-.72-3.08-.14-.51-.36-1.03-.57-1.47-.64-1.17-1.86-1.32-2.79-.29-.14.22-.29.44-.5.59-.29.22-.5.51-.72.81-.43.73-.72,1.54-1.43,2.05-.14.07-.21.29-.29.44l-.86,1.98c-.07.22-.14.44-.29.66-.36.66-.72,1.32-.72,2.13,0,.29-.14.59-.21.88-.5,1.39-.93,2.79-1.5,4.1-.29.59-.43,1.25-.57,1.91l-.43,1.98c-.07.51-.14,1.03-.14,1.54,0,1.17,0,2.34.14,3.52.14,1.1.07,2.2.07,3.3,0,.37,0,.73.07,1.03.21.95-.07,1.69-.79,2.27-.21.22-.43.59-.72.59-.43,0-.93-.15-1.29-.37-1-.59-1.79-1.39-1.93-2.71-.14-1.54-.36-3.08-.57-4.62-.21-1.83-.64-3.66-1-5.5l-.36-2.86-.43-3-.72-11.29Z"/>
    <path class="st0" d="M237.64,97.25c.14.15.21.37.14.59l-.14.95-.72,2.13-.14.44-2.15,3.74c-.07.22-.21.37-.36.51-.57.51-1.14,1.17-1.79,1.61-1.65,1.03-3.29,2.05-5.29,2.13-.43,0-.79.15-1.22.22h-1.07c-.72,0-1.43.07-2.08-.29-.14-.07-.36-.07-.57-.07-.79-.07-1.5-.37-2.22-.73l-.43-.22c-1-.29-1.72-1.03-2.36-1.83-1.07-1.32-2-2.71-2.58-4.32-.21-.73-.43-1.47-.57-2.2-.43-1.91-.86-3.81-1-5.72-.14-1.17-.29-2.34-.21-3.52.07-2.2.29-4.4,1.22-6.45.14-.29.21-.59.29-.88.21-.73.57-1.39,1.22-1.91.14-.15.36-.29.57-.29.86,0,1.72.07,2.36.88.57.66.79,1.32.43,2.2-.57,1.47-.72,3-.93,4.54,0,.22,0,.44-.07.66-.29.66-.29,1.32-.29,1.98.07,1.61.07,3.23.29,4.84.14,1.32.21,2.71.64,4.03.07.15.14.29.14.44.07,1.39.79,2.49,1.43,3.59.5.81,1.29,1.25,2.08,1.76.43.29.93.44,1.43.66,1.15.51,2.29.44,3.43-.07.86-.44,1.65-.95,2.43-1.39.5-.29.93-.66,1.29-1.17.36-.51.86-.88,1.22-1.32.43-.44.86-.95,1.22-1.47l1.86-3.15c.21-.37.43-.73.72-1.03.57-.66,1.43-.73,2-.15l-.21.29ZM216.53,75.26c-1.43-.07-2.07-.73-2-2.13.07-1.1.43-2.13,1.36-2.79.14-.07.29-.22.43-.37.29-.37.64-.51,1.07-.59.14,0,.29,0,.36-.07,1.29-.59,2.29.07,3.15,1.17.43.59.86,1.25.79,2.13-.07,1.32-.79,2.27-1.93,2.86-.36.22-.79.29-1.22.44-.36.15-.72,0-1.07-.07-.29-.07-.57-.22-.86-.22l-.07-.37Z"/>
    <path class="st0" d="M241.93,89.4c0,.07.07.15.14.22.36-.15.43-.44.5-.73.79-2.57,2.29-4.76,3.94-6.82.64-.81,1.36-1.61,2.07-2.42l.43-.44,1.29-1.17c1.43-1.39,3.08-2.35,4.94-2.93.57-.15,1.15-.15,1.72.07l1.65.66c.29.15.5.37.72.59.21.15.36.44.57.51.64.29,1,.81,1.29,1.39.79,1.39,1.5,2.86,1.79,4.47.14.73.43,1.47.64,2.2.21.73.29,1.47.29,2.2,0,1.76-.21,3.44-.64,5.13-.14.66-.43,1.25-.43,1.91,0,.44-.07.88-.07,1.32l-.14,1.98c0,.15,0,.37-.07.51-.57,1.39-.64,2.86-.93,4.32v.22c0,.29-.07.59,0,.81.21,1.1-.14,2.27.21,3.37.07.29.21.59.36.88.36.81.72,1.03,1.57.88,1-.15,1.93-.51,2.72-1.17,2-1.69,3.86-3.52,5.15-5.86.64-1.1,1.29-2.2,1.72-3.37.29-.81.64-1.61,1.22-2.27.5-.59.72-1.39.93-2.2.29-.95.5-1.91.79-2.79.29-.81.86-1.1,1.65-.95,1,.15,1.36.59,1.43,1.61.07.59-.07,1.17-.29,1.76-.21.44-.43.88-.57,1.32-.29,1.1-.72,2.2-1.43,3.08-.36.44-.57.95-.79,1.47-.36.81-.72,1.61-1.15,2.35-.5.95-1.07,1.91-1.65,2.86l-.64,1.1-.21.37c-.79.73-1.22,1.69-1.86,2.49l-.36.51c-.64.44-1.29.95-2,1.39-.43.29-.93.51-1.29.95-.14.15-.36.22-.57.29-.93.37-1.86.73-2.86.88-.5.07-1.07.07-1.65,0-.57-.07-1.07-.37-1.5-.73-.57-.51-1-1.17-1.36-1.83-.36-.73-.72-1.47-1-2.2-.21-.66-.29-1.39-.43-2.05-.29-1.61-.29-3.22-.21-4.84,0-.81.14-1.61,0-2.35-.14-.81,0-1.54.07-2.27l.29-3.08c.07-1.03.29-1.98.5-2.93.36-1.83.72-3.66,1.14-5.5.29-1.32.14-2.57-.14-3.81-.07-.29-.14-.59-.29-.88-.36-.81-1.36-1.25-2.15-1.03-1.29.37-2.5.88-3.43,1.98-.07.07-.14.15-.21.15-1.43.81-2.5,2.05-3.65,3.23-.57.59-1.07,1.25-1.57,1.91-.5.66-1,1.32-1.43,1.98-.36.59-.79,1.17-1,1.91-.07.44-.29.88-.57,1.25-.43.51-.72,1.1-1,1.69l-1.07,2.42c-.14.37-.21.73-.29,1.1s-.07.73-.21,1.1c-.21.59-.21,1.17-.14,1.76l.21,1.61c.14.59.14,1.17,0,1.76-.07.22-.07.44-.07.66-.07,1.32-.07,2.64-.21,3.96-.07.81-.29,1.54-.36,2.27-.07.44-.29.81-.5,1.17-.29.44-.57.51-1,.15-.29-.22-.57-.51-.79-.81-.5-.73-.93-1.54-1.22-2.42-.21-.59-.43-1.1-.72-1.61-.29-.66-.5-1.32-.5-2.05s-.14-1.47-.29-2.2c-.21-.81-.29-1.61-.29-2.42,0-1.17.07-2.35-.14-3.52-.07-.29.07-.59.07-.88,0-.73.14-1.47-.07-2.2v-.22c.07-1.83.07-3.66.29-5.5.14-1.25-.07-2.49-.07-3.74,0-.29-.14-.66-.29-.95-.43-.81-.36-1.69-.29-2.57.07-.59.57-.88,1.14-.66.5.22.93.51,1.29.88.79.81,1.36,1.76,1.93,2.71.43.73.72,1.61.86,2.49.07.51.29,1.03.5,1.54.29.73.5,1.47.36,2.2v.51l-.29-.07Z"/>
    <path class="st0" d="M298.81,104.79c0-.81-.14-1.61-.29-2.57-.57.81-1.07,1.47-1.5,2.2-.29.44-.57.88-.79,1.39-.43.88-1,1.61-1.65,2.35l-1.07,1.32-.21.29c-1.07.73-1.93,1.76-3.08,2.42l-1,.44-1.14.37c-1.43.66-2.93.59-4.44.44-.14,0-.29-.07-.43-.07-1.65-.07-2.86-.95-4.01-1.98-1.43-1.32-2.5-2.79-3.22-4.54-.57-1.32-.86-2.71-1.07-4.1-.07-.51-.14-1.1-.14-1.69-.07-2.05.36-4.03,1.36-5.86l1.93-3.3c1.22-1.98,2.79-3.66,4.65-5.06.86-.66,1.86-1.17,2.86-1.76,1.57-.88,3.29-1.47,5.01-2.05.64-.22,1.29-.29,1.93-.29,1,0,2-.22,3.01-.29.43,0,.86-.07,1.29,0,1.22.22,2.43.51,3.58,1.17,1.07.66,1.86,1.61,2.65,2.64.29,0,.57-.07.86,0,1.29.22,1.79.95,1.43,2.2-.36,1.25-.72,2.49-1,3.74-.21,1.03-.57,1.98-.64,3l-.29,2.86c-.07.73-.14,1.47-.14,2.2,0,1.47.07,2.93.14,4.4,0,.73,0,1.47.07,2.2,0,.51.07.95.14,1.39.07.44.21.88.21,1.32,0,1.47.14,2.93.36,4.32v.29c-.22,1.98.14,3.96,0,5.94,0,0,.07,0,.07.07.36.07.64-.15.93-.29l2.36-1.54c.86-.51,1.5-1.25,2-2.13.57-.95,1.14-1.91,1.79-2.86.21-.29.43-.59.72-.81.5-.37,1.15-.15,1.36.44.14.29.22.66.22.95-.14,1.39-.43,2.71-1.07,3.96-.36.66-.93,1.25-1.43,1.83-.57.66-1.29,1.17-1.86,1.83-.72.73-1.65,1.17-2.5,1.69-.72.44-1.5.81-2.29,1.1-.57.22-.86.59-1,1.17-.43,1.91-.93,3.81-1.43,5.72v.22c0,1.25-.64,2.2-1.22,3.15l-2.29,4.03c-.79,1.32-1.65,2.64-2.72,3.74l-.22.22c-.72,1.25-1.79,2.27-2.79,3.22-.79.73-1.72,1.32-2.58,1.98-.64.44-1.29.88-1.93,1.25-.57.37-1.22.59-1.79.95-.5.29-.93.81-1.5,1.1-.64.37-1.29.73-1.86,1.17-1.07.81-2.36,1.17-3.65,1.39-.57.07-1.15,0-1.72.07-.43,0-.86,0-1.29.15-.14.07-.29.07-.43.07-.64-.07-1.29-.07-1.93-.22-1.5-.44-3-.95-4.29-1.98-.64-.51-1.36-.95-2-1.54-1.14-1.1-2.07-2.34-2.65-3.88-.14-.37-.36-.73-.57-1.1-.21-.44-.5-.81-.64-1.25-.36-1.17-.72-2.35-.72-3.59,0-.22,0-.44-.07-.66-.43-1.98-.14-3.88.43-5.72.5-1.61,1.15-3.22,1.72-4.84.07-.22.21-.44.36-.66,1.07-1.83,2.5-3.37,4.08-4.76,1.43-1.25,3-2.34,4.72-3.22l2.15-1.17c.79-.44,1.65-.66,2.5-.59.72.07,1.43,0,2.15.15,1.43.29,2.72.95,3.94,1.69.93.59,1.43,1.54,1.86,2.56l.36.88c.14.29.36.44.72.37,1.07-.15,2.15-.22,3.15-.44,1.65-.37,3.36-.59,4.94-1.17.72-.29,1.5-.44,2.22-.66l.86-.22c.5-.15.72-.51.72-1.03v-1.1l.21-2.42v-.44l-.21-4.62-.21-2.2c-.29-1.91-.43-3.81-.5-5.72l-.5.37ZM290.93,127.15c-1.15.22-2.29.51-3.36,1.03-.21.88-.36,1.76-.72,2.57-.43,1.03-.64,2.2-1.43,3.08-.07.07-.07.22-.07.29-.21.66-.64,1.17-1,1.69-.5.66-1,1.32-1.43,2.05-.57,1.03-1.36,1.76-2.29,2.42-.21.15-.43.29-.64.37-.86.29-1.79.59-2.72.73-.43.07-.86,0-1.22-.29l-1.57-1.54c-.93-1.03-1.36-2.2-1.07-3.59l.21-.88c.43-1.17.86-2.34,1.36-3.52.14-.37.43-.73.72-1.03,1.5-1.69,3.29-3.08,5.37-3.96l2.79-1.1c.5-.22.64-.44.5-.95-.43-1.39-1.29-2.34-2.72-2.71-.79-.22-1.57-.37-2.43-.29-.21,0-.43,0-.64.07-.57.22-1.22.44-1.79.73-.79.44-1.57.95-2.36,1.47l-.86.66c-.5.51-1.07,1.03-1.36,1.76-.07.22-.29.37-.43.51-1.43,1.61-2.65,3.3-3.01,5.5v.22c-.57,1.39-.36,2.86-.43,4.25-.07,1.17.29,2.35.36,3.52.07,1.61.57,3.08,1.22,4.47.57,1.32,1.57,2.2,2.79,2.86.86.44,1.79.73,2.72,1.1,1.22.44,2.43.37,3.65.22l1.93-.29c1-.15,2-.44,2.86-.95l2.29-1.32,1.29-.88c.86-.59,1.65-1.32,2.43-2.05,1.07-.95,2-2.05,2.86-3.22.21-.29.5-.59.72-.95.93-1.61,1.79-3.22,2.43-4.98.43-1.03.86-2.05,1.22-3.08.5-1.54,1.15-3.08,1.43-4.69v-.51c-.36,0-.57,0-.79.07l-1.29.29c-.57.07-1.14.07-1.65.44-.14.07-.29.07-.43.07l-3.22.66-.21-.29ZM284.07,129.35c-.72.22-1.36.37-1.93.81-.5.37-1.07.66-1.65.95-.86.44-1.65,1.03-2.22,1.83-.72,1.03-1,2.27-1.29,3.52-.07.29-.07.59-.07.88,0,.22.07.44.21.59.64.73,1.43.88,2.29.51.64-.29,1.15-.73,1.43-1.39.57-1.32,1.29-2.57,2-3.81.5-.88.93-1.83,1.22-2.86.07-.29.21-.59,0-1.03ZM301.09,88.31v-.37l-.43-.22c-.43-.22-.86-.44-1.15-.81-.72-.73-1.57-1.03-2.58-1.03h-3.43c-.79,0-1.57.22-2.29.59-1.43.66-2.65,1.61-4.01,2.35-.21.07-.36.22-.5.37l-2.58,2.64c-1.43,1.54-2.15,3.44-2.72,5.42-.14.44-.21.88-.43,1.32-.5,1.03-.72,2.13-1,3.23-.29,1.17-.14,2.34-.14,3.52,0,.07.07.22.14.29l.43,1.03c.79,1.47,1.65,2.79,3.36,3.23,1.22.29,2.36.37,3.51-.22l1.07-.66c1.07-.59,2-1.47,2.79-2.42,1.14-1.32,2-2.86,2.93-4.32l.79-1.39c1.29-1.61,2.22-3.44,3.15-5.28l.57-1.39c.36-.81.72-1.68,1.15-2.49.57-1.1,1-2.27,1.43-3.44l-.07.07Z"/>
    <path class="st0" d="M318.33,94.83h.21c.07-.15.14-.29.14-.44.21-.88.43-1.76.72-2.64.14-.59.36-1.1.57-1.61.57-1.39,1-2.79,1.72-4.1.29-.44.57-.88.93-1.25.72-.88,1.5-1.76,2.29-2.56.93-.95,2.07-1.54,3.29-1.98.36-.15.86,0,1.29,0,.72,0,1.43.15,2.07.44.07.07.14.15.21.15,1.65.29,2.86,1.39,4.08,2.42.5.37.86.95,1.22,1.47.29.29.5.59.72.88.07.15.21.29.21.44.21.95.86,1.69,1.07,2.64l.36,1.61.43,1.98c.21,1.54.14,3.08,0,4.62-.14,1.25-.64,2.42-.64,3.66,0,.22-.14.44-.29.66l-.86,1.98c-.14.22-.29.44-.36.66-.07.44,0,.81.43,1.03.29.15.5.37.72.59.43.51.29,1.1-.36,1.39-.57.22-1.15.22-1.72.07l-.93-.22-1.29,1.39c-.29.29-.57.66-.93.88-.64.44-1.14,1.03-1.65,1.61-.5.51-1.07.95-1.72,1.25-.64.29-1.22.66-1.79,1.17-.93.81-2.07,1.1-3.22,1.25-.21,0-.43-.07-.64-.07-.29,0-.57-.07-.86-.07h-1.22c0,.29.07.51.07.73-.07,1.17-.64,1.69-1.79,1.54-1.29-.15-2.29-.73-3.08-1.76l-.86-1.1c-.14-.15-.29-.29-.36-.51-.29-.73-.57-1.47-.79-2.27-.93-2.93-1.79-5.94-2.58-8.94-.43-1.61-.5-3.23-.86-4.84-.57-2.86-.43-5.72-.43-8.57,0-1.17-.07-2.34.14-3.52.07-.29-.07-.66-.07-1.03,0-1.61.07-3.22.29-4.76.14-1.03.36-2.05.57-3.08.07-.37.21-.73.21-1.1.21-2.35.57-4.69.93-7.04.14-.88.36-1.76.57-2.64.07-.44.14-.88.29-1.32l.64-1.98c.29-.88.57-1.76.93-2.64.57-1.47,1.07-3,1.79-4.4,1.07-2.13,2.22-4.18,3.79-5.94l1.64-2.05,2.15-2.35c.57-.59,1.22-1.1,1.86-1.54.72-.51,2-.37,2.79.07,1.65,1.03,2.15,2.71,2.29,4.47.14,1.83-.07,3.66-.36,5.5-.21,1.32-.5,2.57-.86,3.81l-.43,1.1-.79,2.05c-.29.73-.64,1.39-1,2.05l-1.15,2.2c-.43.88-.86,1.76-1.5,2.56l-.21.44c-.5,1.32-1.57,2.27-2.29,3.44-.36.51-.72,1.03-1,1.54-.43.73-1,1.39-1.57,2.05l-2.15,2.42c-.21.22-.36.51-.43.88-.29,1.25-.5,2.49-.43,3.81.07.73,0,1.47-.29,2.2-.14.29-.14.66-.14,1.03-.14,2.27-.29,4.54-.29,6.82,0,.51-.14,1.03,0,1.54s.07,1.03.07,1.54l.43.29ZM320.05,69.84c-.14.29-.21.59-.07.88.07,0,.14,0,.21-.07.86-.81,1.72-1.61,2.43-2.57l1.57-1.98c.93-1.17,1.93-2.27,2.72-3.52,1.29-2.2,2.36-4.47,3.15-6.96.64-2.05.93-4.1.93-6.23,0-1.39-.72-3-1.79-4.03-.5.29-.86.73-1.15,1.25-.43.73-.93,1.47-1.29,2.27-.5,1.25-1.15,2.42-1.5,3.74-.21.73-.57,1.39-.86,2.13l-1.29,3.3-.14.51c-.07.37-.14.73-.29,1.03-.64,1.25-.86,2.64-1.22,3.96-.36,1.32-.5,2.64-.93,3.88-.07.15-.07.29-.07.44,0,.59-.14,1.17-.36,1.76l-.07.22ZM320.77,107.58l.29-.37c.36-.81,1-1.39,1.57-1.98,2-1.91,4.44-2.64,7.08-2.49l3.43.15h.64c.21,0,.43-.15.5-.37.72-1.54,1.36-3.15,1.72-4.84.36-1.76.57-3.52.43-5.28-.14-1.54-.43-3.08-.93-4.54-.36-1.1-.72-2.2-1.65-3-.07-.07-.14-.15-.14-.22-.57-1.03-1.57-1.54-2.58-1.91-.79-.29-1.65-.29-2.43.37-1,.88-1.93,1.76-2.79,2.78-.5.59-.93,1.17-1.29,1.83-.93,1.83-1.86,3.66-2.29,5.72,0,.15-.07.29-.14.44-1,2.27-1.29,4.69-1.5,7.11-.07.81-.14,1.61-.29,2.42-.14.88-.14,1.76-.14,2.64,0,.51.14.95.5,1.54ZM331.5,105.75h-2.07c-1.29-.07-2.5.07-3.51,1.03-.36.29-.79.59-1.22.81-1.14.66-1.64,1.76-2,2.93-.07.29-.07.59,0,.88.07.37.29.59.64.59,1,0,2,.22,2.86-.44l.5-.22c.64-.15,1.15-.51,1.57-.95.64-.73,1.22-1.47,2.08-1.98.21-.07.36-.29.5-.44l1.07-1.32.21-.44c.07-.15,0-.37-.14-.44-.14-.07-.29-.15-.43-.15l-.07.15Z"/>
    <path class="st0" d="M372.49,97.25c.14.15.21.37.14.59l-.14.95-.72,2.13-.14.44-2.15,3.74c-.07.22-.21.37-.36.51-.57.51-1.15,1.17-1.79,1.61-1.65,1.03-3.29,2.05-5.29,2.13-.43,0-.79.15-1.22.22h-1.07c-.72,0-1.43.07-2.08-.29-.14-.07-.36-.07-.57-.07-.79-.07-1.5-.37-2.22-.73l-.43-.22c-1-.29-1.72-1.03-2.36-1.83-1.07-1.32-2-2.71-2.58-4.32-.21-.73-.43-1.47-.57-2.2-.43-1.91-.86-3.81-1-5.72-.14-1.17-.29-2.34-.21-3.52.07-2.2.29-4.4,1.22-6.45.14-.29.21-.59.29-.88.21-.73.57-1.39,1.22-1.91.14-.15.36-.29.57-.29.86,0,1.72.07,2.36.88.57.66.79,1.32.43,2.2-.57,1.47-.72,3-.93,4.54,0,.22,0,.44-.07.66-.29.66-.29,1.32-.29,1.98.07,1.61.07,3.23.29,4.84.14,1.32.21,2.71.64,4.03.07.15.14.29.14.44.07,1.39.79,2.49,1.43,3.59.5.81,1.29,1.25,2.07,1.76.43.29.93.44,1.43.66,1.15.51,2.29.44,3.43-.07.86-.44,1.65-.95,2.43-1.39.5-.29.93-.66,1.29-1.17.36-.51.86-.88,1.22-1.32.43-.44.86-.95,1.22-1.47l1.86-3.15c.21-.37.43-.73.72-1.03.57-.66,1.43-.73,2-.15l-.21.29ZM351.39,75.26c-1.43-.07-2.08-.73-2-2.13.07-1.1.43-2.13,1.36-2.79.14-.07.29-.22.43-.37.29-.37.64-.51,1.07-.59.14,0,.29,0,.36-.07,1.29-.59,2.29.07,3.15,1.17.43.59.86,1.25.79,2.13-.07,1.32-.79,2.27-1.93,2.86-.36.22-.79.29-1.22.44-.36.15-.72,0-1.07-.07-.29-.07-.57-.22-.86-.22l-.07-.37Z"/>
    <path class="st0" d="M379.79,81.71c0,.22.07.44.07.73.21,0,.36,0,.5-.07.79-.44,1.57-.81,2.22-1.39.57-.51,1.15-.88,1.86-1.1.86-.29,1.72-.66,2.58-1.03.5-.22,1-.29,1.57-.29h1.29c1.5-.07,2.79.59,3.79,1.61.72.73,1.22,1.69,1.22,2.79,0,.66,0,1.32-.29,1.98-.07.15-.14.29-.14.44-.21,1.17-.57,2.35-.93,3.52l-.14.95c-.07.37-.07.73-.21,1.03-.5.95-.72,1.98-.93,3-.29,1.39-.64,2.79-1.07,4.18-.36,1.32-.57,2.71-.86,4.03-.07.15-.07.37-.07.51,0,.22.07.44.07.59-.14,1.17.36,2.13.93,3.08.29.44.64.73,1.07.88l1.93.66c.29.07.57.07.86.07,1.5-.07,2.86-.73,4.22-1.39,1.5-.81,2.79-1.98,4.15-3,.43-.37.86-.81,1.15-1.32.86-1.47,2.15-2.64,2.86-4.18.72-1.54,1.57-3.01,2.07-4.69l.43-1.76c0-.07.07-.15.14-.22.36-.95.57-1.1,1.57-1.1.5,0,.79.22,1,.66.29.51.36,1.03.14,1.61l-1,2.71c-1,2.27-2.22,4.4-3.79,6.3-.14.22-.36.37-.57.51-.14.15-.36.29-.43.51-.64,1.1-1.65,1.83-2.58,2.64-.5.44-1,.95-1.57,1.39-1,.73-1.93,1.61-3.01,2.2-1.43.81-2.86,1.68-4.58,1.83-.21,0-.43.07-.64.15-1.29.22-2.58.07-3.86-.37-.64-.22-1.29-.51-1.79-.95-1.65-1.47-2.93-3.22-3.22-5.57-.14-1.39-.5-2.79-.43-4.18.07-1.39.36-2.78.5-4.18.21-1.98.86-3.81,1.5-5.64.79-2.27,1.5-4.54,2.22-6.82.07-.15.14-.29.14-.44.14-.73-.07-1.03-.79-1.03-.29,0-.64.07-.93.15-.29.07-.57.22-.86.37-1.07.51-2,1.25-3,1.83-1,.59-2,1.25-3.08,1.61l-1.72.73c-.36.15-.57.44-.72.81l-.86,2.86-.64,1.76-1.29,2.86-1.07,2.2c-.21.37-.43.81-.72,1.1-.57.59-1,1.32-1.43,1.98-.36.59-.79,1.1-1.5,1.32-.21.07-.43.29-.64.44-.29.15-.57.15-.93,0-.36-.15-.5-.37-.36-.73l.43-.88c.57-.95,1-1.98,1.5-3,.36-.73.79-1.39.93-2.2l.29-.66.86-2.2.21-.66c.57-1.03.79-2.2,1.29-3.3l.43-1.1.21-.66c.07-.37-.07-.59-.36-.73l-.43-.15c-.79-.37-1.5-.81-2.07-1.47-.64-.73-1.36-1.32-1.86-2.2-.43-.73-.86-1.47-.93-2.35l-.29-1.91c-.07-.66-.07-1.25.22-1.83.14-.29.21-.66.36-1.03.14-.44.29-.88.5-1.25.29-.59.64-1.1,1.15-1.47.64-.51,1.36-.88,2.15-1.25.29-.15.64-.22.93-.22.36,0,.72.07,1.07.07.64-.07,1.22.15,1.72.51.93.73,1.72,1.61,2.15,2.71.14.44.22.88.29,1.32.07.44.07.88.29,1.25.07.15.14.29.14.44-.22.81,0,1.69-.07,2.49l-.21,2.64-.29-.07ZM373.56,80.39c.64,1.03,1.36,1.98,2.79,2.27.36-1.03.57-2.05.64-3.08v-1.1c0-.59-.07-1.17-.07-1.76,0-.73-.21-1.47-.43-2.2-.29-.95-.93-1.47-1.86-1.76-.43-.15-.72-.07-1,.29-.14.15-.29.29-.36.44-.29.88-.57,1.76-.79,2.64-.07.29-.07.59,0,.88l.64,2.86c0,.15.07.29.14.44l.29.07Z"/>
    <path class="st0" d="M431.59,79.22c.14.15.36.15.57.22.07-.15.14-.22.14-.29.07-1.39.14-2.79.29-4.18.07-.95.21-1.91.36-2.86l.22-1.91c.43-3.08,1.22-6.08,1.86-9.16.29-1.39.5-2.78.86-4.1.29-1.17.79-2.27,1.15-3.37.57-1.76,1.57-3.22,2.72-4.62.29-.37.64-.66,1-.95l1.15-1.03c1.15-.95,2.36-.88,3.29.29l1.07,1.25c.21.29.36.66.5,1.03l.57,1.17c.43.95.57,1.98.72,3.01.07.51.07,1.03.22,1.54.29,1.1.21,2.2.14,3.3,0,.29-.07.59-.07.88.07,1.1-.21,2.13-.29,3.22-.14,1.54-.79,3-1.07,4.54-.43,2.42-1.36,4.69-1.86,7.04-.14.51-.43.95-.64,1.47l-1.29,3.08c-.21.51-.43,1.03-.57,1.54-.43,1.39-1.14,2.64-1.79,3.88l-1,1.98-.86,1.54c-.21.44-.43.88-.72,1.25-.79,1.25-.86,2.57-.64,3.96,0,.15.07.37,0,.51-.21.81.07,1.54.21,2.27.14.59.21,1.17.29,1.76.21,1.47.29,2.93.79,4.32.36.88.57,1.76.86,2.64.07.22.14.44.29.59.86,1.03,1.72,2.05,2.93,2.64.86.37,1.72.51,2.65.22,1.5-.44,2.65-1.25,3.51-2.64.29-.44.72-.81,1-1.25l1.93-2.86.22-.44,1.07-2.86c.07-.07.07-.22.07-.29.22-.81.93-1.03,1.57-.51.14.07.21.29.29.44.14.44,0,.81-.14,1.17-.29.59-.5,1.17-.5,1.83,0,.44-.21.88-.36,1.25-.72,1.61-1.57,3.08-2.65,4.47-.64.81-1.07,1.69-1.86,2.34-.36.37-.72.73-1.22.88l-.43.22c-.43.81-1.29.81-2,1.03-.57.22-1.22.22-1.86.29-.72.07-1.43.07-2.07-.29l-.64-.22c-1.22-.29-2.29-.88-3.29-1.68-.86-.66-1.5-1.54-2.15-2.35-1.22-1.54-1.93-3.3-2.36-5.2l-.86-3.59c-.5.22-.79.59-1,1.1-.29.73-.64,1.39-1.22,1.91-.43.37-.79.81-1.15,1.25-.14.15-.29.29-.36.51-.21.44-.5.73-.86.95-.43.29-.86.66-1.15,1.03-.5.66-1.15,1.17-1.79,1.69-.86.66-1.64,1.39-2.65,1.76-.29.07-.57.37-.79.66-.5.66-1.14,1.03-1.86,1.32-.43.15-.86.29-1.22.51-1.07.51-2.22.51-3.36.37-.64-.07-1.29-.22-1.93-.51-.64-.29-1.22-.66-1.72-1.17-.57-.59-1.22-1.1-1.72-1.76-.5-.66-.93-1.39-1.29-2.13-.43-.88-.72-1.83-1-2.79-.5-1.54-.57-3.15-.5-4.76.07-2.42.72-4.69,1.5-6.96.36-1.03.72-2.05,1.29-3,1.07-1.83,2.15-3.66,3.65-5.13.93-.95,1.86-1.98,3-2.79.72-.51,1.43-.95,2.22-1.25l1.86-.66c.64-.22,1.29-.37,2-.37h3.01c.93,0,1.86.15,2.72.59l.64.22c.64.22,1.22.44,1.79.81l.57.22ZM412.27,100.54c-.07.88.21,1.61.57,2.35.43.95,1.22,1.61,1.93,2.34,1.22,1.32,3.51,1.47,4.94.51.43-.29.86-.51,1.29-.73,1.36-.59,2.58-1.39,3.72-2.27,1.22-.95,2.5-1.76,3.65-2.79.36-.29.64-.66.93-1.03.5-.73.86-1.54,1.5-2.13.79-.73,1.36-1.69,2-2.57.14-.29.14-.59.07-.88-.14-1.03-.29-2.05-.36-3.08l-.21-4.4v-.44c0-.37-.14-.66-.43-.95-1.36-1.54-1.57-1.68-3.58-2.13-.29-.07-.64-.07-.93-.07-.57,0-1.15,0-1.72-.07-.29,0-.57,0-.86.15-.79.37-1.57.73-2.36,1.03-.64.22-1.29.51-1.86.95-.36.29-.64.66-.93,1.03-.79.95-1.79,1.61-2.58,2.57-.86,1.03-1.65,2.13-2.15,3.44-.14.29-.29.59-.5.88-.29.44-.57.88-.72,1.47-.07.29-.21.59-.36.88-.21.44-.29.88-.36,1.32-.21,1.03-.5,2.05-.43,3.08,0,.15-.07.29-.07.44l-.21,1.1ZM437.24,83.47c.07.59.07,1.17.07,1.76h.14c.72-1.39,1.5-2.79,2.15-4.25.86-2.05,1.65-4.1,2.43-6.16.29-.66.43-1.39.64-2.13l.21-.88c.29-1.1.72-2.13.93-3.22l.93-3.74c.14-.44.21-.88.29-1.32.22-1.69.57-3.37.64-5.06v-.22c.07-.73.07-1.47-.14-2.2-.22-.66-.29-1.39-.29-2.13,0-.37-.07-.81-.14-1.17-.29-1.25-.93-2.42-1.36-3.66-.14-.37-.43-.44-.72-.22-.21.15-.5.29-.64.51-.43.59-.86,1.17-1,1.91-.07.29-.21.59-.36.88l-.29.88c-.14.59-.14,1.17-.36,1.76-.5,1.61-.72,3.3-.72,4.98v.66c-.07.81-.14,1.61-.14,2.42,0,.66-.07,1.32-.29,1.98-.14.37-.14.73-.07,1.1.21.88.21,1.69,0,2.49-.14.44-.14.95-.21,1.39l-.14.95c-.36,1.03-.36,2.13-.64,3.15-.07.22,0,.51,0,.81s0,.59-.07.81c-.21.59-.36,1.1-.14,1.69-.07,1.1-.07,2.2-.21,3.22-.14,1.1-.36,2.2-.22,3.3l-.29-.29Z"/>
    <path class="st0" d="M494.69,78.7c0,.66.07,1.32,0,1.98-.14,1.39,0,2.79.29,4.18.21.81.21,1.61.21,2.42s.14,1.61.36,2.42c.36,1.39.57,2.79.5,4.25-.07,1.25.36,2.42.79,3.59.57,1.61,1.15,3.22,2.22,4.62l.43.81c.72,1.54,1.79,2.86,2.93,4.1l1.07,1.1c2.15,2.34,4.86,3.96,7.73,5.28,2.72.81,5.37,1.76,8.23,1.61h2.58c2.07,0,4.08-.37,6.08-.88.57-.15,1.15-.37,1.72-.59l1.5-.51c1.93-.66,3.72-1.61,5.44-2.71,1-.66,2-1.32,3.01-2.05.43-.29.79-.66,1.15-1.03.5-.51,1-1.1,1.57-1.61,1.93-1.76,3.51-3.81,4.87-6.01.64-1.1,1.43-2.13,2.15-3.15.93-1.25,1.57-2.64,2.22-4.03,1-2.2,1.93-4.47,3.08-6.67.36-.73.57-1.54.86-2.27.21-.44.57-.66,1.07-.66.43,0,.86.37.86.81s0,.88-.21,1.25c-.64,1.1-.93,2.34-1.5,3.44-.21.37-.36.81-.5,1.25-.57,2.27-1.65,4.4-2.65,6.52l-.64,1.1c-.21.29-.5.59-.57.95-.5,1.69-1.65,3-2.29,4.54-.14.37-.29.73-.5,1.03-1.07,1.1-1.86,2.49-2.93,3.59-.79.81-1.36,1.76-2.15,2.56-.72.73-1.65,1.25-2.29,2.05-.93,1.1-2,1.91-3.29,2.49l-.43.22c-2.07,1.69-4.65,2.27-7.01,3.37-1.57.29-3.01.95-4.65,1.1-1.07.07-2.15.37-3.22.51-2.22.22-4.44-.07-6.65-.15-.29,0-.57-.07-.86-.15-1.57-.37-3.15-.73-4.72-1.17-.72-.22-1.43-.44-2.08-.73-3.93-1.83-7.58-4.1-10.66-7.26-1.5-1.61-2.93-3.3-4.22-5.13-1.07-1.54-2.15-3-2.86-4.69-.21-.44-.43-.95-.57-1.47l-1.5-4.18c-.57-1.54-.86-3.15-1.07-4.76-.07-.66-.07-1.32-.21-1.98-.14-.51-.14-1.03-.14-1.54v-3.3c-.07-3.74.64-7.33,1.86-10.85l.36-1.1c.14-.37.21-.73.43-1.03,1.15-1.83,1.86-3.88,2.79-5.79,1.43-2.79,3.29-5.2,5.65-7.26.86-.81,1.79-1.54,2.72-2.27.14-.15.29-.29.5-.37,1.57-.88,3.15-1.83,4.79-2.64.86-.44,1.79-.73,2.65-1.03.43-.15.86-.15,1.29-.29,2-.88,4.15-1.17,6.3-1.47.43-.07.86-.15,1.29-.29.64-.22,1.29-.22,1.93-.22s1.29,0,1.93-.29c.79-.37,1.57-.29,2.36-.15,1.36.22,2.72.51,4.08.81h.21c2.43,1.1,5.01,1.98,7.16,3.66.5.37,1,.81,1.43,1.32.72.88,1.36,1.76,2,2.64.43.59.79,1.25.79,2.05,0,.29.07.59.21.81.57,1.17.79,2.42.93,3.66.07.66.21,1.32.21,1.98,0,.95,0,1.91.21,2.86.07.44.07.95,0,1.39-.57,2.86-1.22,5.64-2.29,8.36-.43,1.1-1.07,2.13-1.65,3.15-.5.95-1.07,1.91-1.57,2.93-.43.81-.86,1.54-1.5,2.13l-1.07,1.1c-1.43,1.69-3.29,2.57-5.37,3.15-.5.15-1,.22-1.5.22-.93,0-1.86.07-2.79,0-2-.22-3.79-.95-5.15-2.56-1.07-1.25-1.57-2.79-2.07-4.32-.07-.37-.07-.73-.07-1.1,0-.51.07-1.1-.07-1.61-.36-1.17-.14-2.34.14-3.44.57-2.2,1-4.47,2.43-6.38.29-.37.43-.81.64-1.17.57-.95,1.14-1.91,2.15-2.49.43-.29.72-.73,1.07-1.1.29-.22.57-.44.86-.59.43-.22.86-.22,1.29,0,.43.22.79.59,1.07,1.03.21.29.36.66.14,1.03-1.29,2.42-2,5.06-2.5,7.77-.36,2.13-.29,4.25-.21,6.38.07,1.03.57,1.91,1.07,2.71.72,1.1,2.86,1.76,3.94,1.25.86-.44,1.65-.95,2.29-1.69,2.07-2.49,3.72-5.28,5.01-8.28.57-1.32,1-2.79,1.36-4.25.29-1.32.36-2.64.5-3.96v-.44l-.64-4.4-.29-1.32c-.21-.88-.29-1.76-.57-2.57-.29-.81-.79-1.54-1.22-2.27l-.57-.95c-1.86-1.98-3.94-3.52-6.65-3.96l-1.07-.22-2.79-.29c-.43,0-.86,0-1.29.15-1.72.51-3.51.22-5.22.66-1.07.22-2.15.44-3.15.81-3.43,1.1-7.44,3.22-10.16,5.42-.93.73-1.79,1.61-2.5,2.49-.57.73-1.15,1.47-1.79,2.2-.72.73-1.14,1.69-1.43,2.71-.43,1.47-.93,2.93-1.43,4.4-.5,1.47-.79,3-1.15,4.54-.07.44-.07.88-.07,1.32v2.64l-.72.22Z"/>
    <path class="st0" d="M551.85,98.93v-1.76c.07-.22.21-.44.21-.66.22-1.98.64-3.88,1.5-5.64.86-1.83,1.86-3.59,3.22-5.06.43-.51.86-1.1,1.36-1.54.93-.81,1.86-1.69,2.86-2.42,1.57-1.17,3.36-1.76,5.3-1.98.72-.07,1.43-.07,2.15,0,.57.07,1.22,0,1.86,0,.86,0,1.65,0,2.43.44.36.22.79.29,1.22.29,1.29,0,2.36.59,3.43,1.25.43.22.79.51,1.15.81.57.37,1.07.95,1.36,1.69-.14.29-.43.44-.79.37-.21,0-.43-.15-.64-.29l-.43-.44c-.36-.37-.79-.66-1.29-.88l-1.86-.95c-.29-.15-.57-.29-.86-.22-.5.07-.93-.15-1.43-.22-1.72-.22-3.43-.15-5.01.73-.36.22-.79.44-1.22.44-.79.07-1.29.51-1.72,1.03-.43.51-.86.95-1.36,1.39-.5.37-1,.81-1.36,1.39l-.29.37c-.21.88-.86,1.47-1.36,2.2l-.86,1.39c-.36.59-.72,1.17-.93,1.76-.36,1.03-.57,2.05-.93,3.08-.5,1.69-.43,3.37-.36,5.06.07,1.47.36,2.93,1.07,4.25.36.59.64,1.25,1.15,1.76,1.07,1.1,2.36,1.68,3.79,1.91.86.15,1.79-.07,2.65-.44,1.43-.66,2.72-1.61,3.86-2.71.43-.44.79-.95,1.15-1.47l2.15-2.86.79-1.32c.29-.37.29-.73.14-1.17-.29-.95-.57-1.91-.79-2.86-.29-1.32-.14-2.64.07-3.96l.43-2.2c.14-.59.43-1.1.79-1.54.57-.73,1.22-1.47,1.86-2.2.22-.29.5-.37.86-.22l1.07.44c.5.22.93.51,1.29.88.36.37.57.81.57,1.32.07.66,0,1.32-.21,1.98l-.93,3.22c-.07.15-.07.37-.07.51l-.29,1.54c-.07.66-.14,1.39-.14,2.13,0,.29,0,.59-.29.81-.43.37-.43.81-.29,1.25.21.73.5,1.39.79,2.05.79,1.69,2.15,2.79,3.65,3.74.79.15,1.57.44,2.43.22,1-.22,1.93-.66,2.86-1.1l.22-.22c.79-.73,1.57-1.39,2.29-2.13.93-.95,1.86-1.98,2.72-3,.5-.66.79-1.47,1-2.27.07-.22.14-.51.29-.73.21-.44.64-.51,1.07-.22l.43.44c.5.51.72,1.1.36,1.83-.72,1.54-1.36,3.15-2.43,4.47l-1.43,1.54c-.43.44-.93.88-1.36,1.39-.64.66-1.36,1.25-2.15,1.61-.86.44-1.72.81-2.72.81-.64,0-1.29,0-1.86.15-.29.07-.57.07-.86,0-1.22-.29-2.43-.81-3.43-1.54-.93-.73-1.86-1.54-2.65-2.49l-.79-.88c-.29-.29-.5-.29-.86-.07-.29.22-.5.51-.57.88-.07.44-.36.73-.64,1.03l-2.15,2.42c-.21.29-.5.51-.79.73-.29.22-.64.44-.93.73-.43.51-1,.81-1.57.95-.79.29-1.57.73-2.43.81-.29,0-.57.15-.79.29-.29.22-.57.37-.93.29-.72-.15-1.5-.22-2.22-.44l-1.15-.22c-.43-.07-.86-.15-1.22-.29l-2.79-1.39c-.5-.22-.93-.51-1.29-.88-.79-.81-1.43-1.69-2-2.64-.57-1.03-1.07-2.13-1.36-3.3-.21-.66-.36-1.39-.5-2.05-.07-.37-.07-.81-.36-1.1l.07-.07ZM576.75,93.58l1.57-4.4c.14-.37.07-.73.07-1.1,0-.07-.07-.15-.14-.15s-.21,0-.29.07l-.21.22c-.86,1.1-1.22,2.42-1.29,3.81,0,.51-.07,1.03.29,1.54Z"/>
    <path class="st0" d="M600.64,106.63c0,.22.07.44.07.73l.5-.15c.5-.15,1-.29,1.5-.51,1.79-.73,3.72-1.03,5.51-1.69.43-.15.86-.29,1.22-.51,1.79-1.03,3.58-2.13,5.22-3.44l1.5-1.32c.14-.15.29-.29.36-.44l2.79-4.18c.07-.15.14-.29.29-.44.5-.66.79-.73,1.43,0,.36.37.43.88.21,1.32-.57,1.25-1,2.56-1.86,3.66-.5.66-.86,1.39-1.5,1.91-1,.81-1.93,1.76-3.01,2.56-1.22.88-2.43,1.76-3.72,2.57-.64.37-1.29.73-2,.88-.21.07-.43.22-.64.37-.5.37-1,.59-1.65.59-.07,0-.14,0-.21.07-1,.73-2.22.88-3.22,1.47-.07.29.14.37.29.51.57.59,1.14,1.17,1.5,1.91.14.29.36.51.57.73l1.43,1.54.57.95c.86,1.17,1.5,2.49,2.15,3.74.5,1.03,1,2.05,1.29,3.15.07.22.14.51.29.73.5.95.93,1.98,1.29,3l.21.88c0,.15,0,.29.07.44.29.66.43,1.39.29,2.2-.07.29.14.66.21.95s.21.59.21.88c.14.95.21,1.91.29,2.86v.51c0,.44-.07.88-.07,1.32,0,.66-.07,1.25-.5,1.76l-.43.66c-.64,1.47-1.86,2.13-3.36,2.27h-.07c-1.14.29-2.22-.07-3.29-.51-.86-.37-1.79-.59-2.58-1.17-.93-.66-1.79-1.47-2.5-2.35-1.5-1.98-2.79-4.1-3.86-6.38-.57-1.17-1.07-2.42-1.43-3.66-.64-2.34-1.36-4.62-1.5-7.04,0-.44-.14-.88-.21-1.32l-.43-3.96c0-.15-.07-.29-.14-.51l-.57.15c-.93.44-1.93.51-2.86.51-1.14,0-2.29-.37-3.22-1.17-1.43-1.17-1.43-3-.36-4.18,1.22-1.25,2.58-2.2,4.22-2.79.57-.22,1.15-.29,1.72-.22h.86c.29,0,.43-.15.43-.51v-.88c0-1.32.07-2.64.14-3.96.07-1.32,0-2.64,0-3.96,0-.59.07-1.17.14-1.76v-.44c.07-1.39.07-2.78.21-4.18.14-1.76.21-3.52.5-5.2.29-1.54.64-3.08.79-4.69.22-2.49.72-4.91,1-7.4.14-1.1.43-2.2.57-3.3.14-1.03.22-2.05.29-3.08.07-.88.14-1.76.29-2.64.36-1.98.79-3.96,1.22-5.94.14-.66.29-1.32.5-1.98.57-1.69,1-3.44,1.72-5.06l.36-.88.93-1.98c.57-1.39,1.57-2.49,2.5-3.66.5-.59,1.14-1.03,1.79-1.47.36-.29.79-.51,1.22-.73.36-.15.72-.29,1.07-.37.57-.07,1.07.07,1.5.51,1.07,1.1,2.15,2.2,2.79,3.59l.93,1.98c.07.22.14.44.14.66,0,.59,0,1.17-.07,1.76-.14,1.1-.29,2.2-.5,3.3-.14.51-.36,1.03-.36,1.61,0,.07,0,.22-.07.29-.64,1.54-.86,3.22-1.65,4.69-.21.44-.29.95-.43,1.47-.29.88-.57,1.83-.93,2.71-.5,1.25-1,2.49-1.72,3.59l-.29.44c-.29.88-.86,1.54-1.36,2.27-.43.73-.79,1.54-1.15,2.27-.36.73-.64,1.47-1.22,2.05-.22.22-.36.51-.5.81l-.57,1.17c-.93,1.54-1.29,3.23-1.5,4.98-.21,1.54-.14,3.08-.57,4.54-.07.15-.14.29-.14.44,0,1.32-.21,2.64-.43,3.96-.07.22-.07.51-.07.81,0,.73-.07,1.47-.22,2.2-.14.81-.21,1.69-.29,2.57-.07,1.03.07,2.05-.07,3-.21,1.39-.07,2.79-.14,4.18l-.21,2.2.57.15ZM589.55,112.42l1,.15c.43-.07.86-.07,1.29-.22.64-.22,1.22-.59,1.86-.81.72-.22.86-.81.93-1.47,0-.44-.29-.73-.72-.66-1,.15-2,.44-2.86.95-.57.37-1.07.88-1.57,1.32-.21.22-.07.59.22.66l-.14.07ZM604.01,114.25c-.64-1.25-1.79-1.83-2.93-2.64-.07.22-.14.37-.14.51-.07.59-.21,1.17-.14,1.76.07.59-.07,1.17-.14,1.76-.14,1.98.14,3.96.29,5.94,0,.07.07.15.07.22.21,1.03.43,2.05.57,3.08.14.88.29,1.76.64,2.57v.22c.14,1.03.57,1.98,1.07,2.86.93,1.76,1.93,3.52,2.93,5.28.57,1.03,1.43,1.76,2.29,2.49.36.29.93.29,1.29-.07.21-.22.43-.51.57-.81.43-.88.5-1.91.5-2.93,0-.59-.07-1.17-.14-1.69-.07-.29-.14-.66-.29-.95-.22-.44-.29-.88-.29-1.39.07-.66-.07-1.25-.22-1.83-.5-1.83-1.14-3.66-1.43-5.57-.29-1.61-.86-3.15-1.57-4.62-.14-.29-.29-.59-.5-.81l-1.72-1.98c-.36-.44-.79-.88-1.07-1.39h.36ZM604.87,68.66h.22c1.22-1.47,2.15-3.08,2.86-4.84l1.72-3.96.64-1.54c.43-1.03.64-2.13.93-3.22.29-1.25.57-2.49.93-3.74.29-1.17.07-2.27-.36-3.3-.14-.29-.36-.51-.57-.73-.14-.15-.36-.15-.5,0-.07.07-.14.22-.29.29-.5.37-.57,1.03-.93,1.54-.93,1.47-1.15,3.15-1.57,4.76-.21,1.03-.29,2.05-.72,3-.14.29-.22.66-.22.95,0,.44-.14.88-.36,1.25l-.43.73c0,.51.07.95-.07,1.32-.43,1.32-.72,2.71-1,4.1-.21,1.03-.29,2.05-.43,3.08l.14.29Z"/>
    <path class="st0" d="M624.68,97.1h-1.65l.36,1.91.5,1.98c.21,1.17.79,2.2,1.5,3.15l1.43,1.54c.57.59,1.36.81,2.15,1.03,2.15.66,4.36,1.03,6.58.81.93-.07,1.86-.37,2.72-.73,1.29-.59,2.5-1.39,3.58-2.27.29-.22.5-.44.64-.73.36-.51.79-.95,1.29-1.32.36-.22.64-.44.86-.81.07-.15.21-.22.36-.29,1.22-.95,2.08-2.27,2.86-3.59.72-1.1,1.29-2.27,1.86-3.52.43-.95,1.07-1.47,2.07-1.54.29,0,.57-.15.86-.22.5-.07.79.22.72.73-.14,1.17-.57,2.2-1.15,3.22-.43.73-.79,1.54-1.29,2.2-.72.95-1.43,1.91-2.07,2.86-.07.15-.21.22-.36.29l-.5.44c-.57.73-1.15,1.47-1.93,1.98-.07.07-.14.15-.14.22-.21.73-.86,1.1-1.36,1.54l-1.93,1.54c-1.65,1.25-3.43,2.13-5.44,2.71-.36.07-.72.29-1.07.37-.86.22-1.72.44-2.58.59-.64.15-1.29.29-1.93.22-.21,0-.43.07-.64.15-.36.15-.72.22-1.07.15-.14-.07-.36-.07-.5-.07-1.29.07-2.43-.29-3.51-1.03l-.79-.44c-.64-.37-1.22-.81-1.79-1.25-.79-.66-1.5-1.32-2.22-2.05-1.86-1.83-3.15-4.03-3.65-6.67-.22-1.03-.43-2.05-.22-3.15.07-.29,0-.66,0-1.03,0-.73,0-1.47.22-2.13.07-.22.14-.44.14-.66-.07-.88.29-1.61.57-2.35l.86-2.42c.57-1.32,1.29-2.57,2.29-3.66l1.93-2.2c.86-1.03,1.86-1.83,2.93-2.56.43-.29.86-.51,1.29-.73.93-.44,1.86-.95,2.86-1.32,1.29-.44,2.58-.51,3.79.07.5.22.93.51,1.36.88.57.44,1.14.95,1.64,1.47,1.07,1.1,1.57,2.49,1.86,3.96.14.66.07,1.32-.22,1.91l-.64,1.61c-.07.15-.21.37-.36.44-.5.29-.79.73-1,1.25,0,.07-.07.15-.14.22-1.36,1.61-2.5,3.44-4.15,4.84-.86.66-1.79,1.1-2.72,1.54-.14.07-.36.07-.5.22-.86.73-1.93.81-3.01.95-.57.07-1.22-.07-1.86-.07l.29-.15ZM623.68,91.53l-.14,1.17c1.22.51,2.36.73,3.51.59.29,0,.57-.07.86-.07,1.79-.15,3.29-.88,4.65-2.05.79-.66,1.5-1.47,2.22-2.2.21-.22.36-.44.5-.66l.64-1.32c.36-.59.5-1.17.21-1.83-.14-.44-.29-.88-.36-1.32-.07-.51-.29-.88-.64-1.17l-.72-.66c-.57-.66-1.36-.88-2.15-1.1-.29-.07-.64-.07-.93,0-1.22.37-2.22,1.17-3.22,1.91-.14.07-.21.29-.29.44-.57.81-1.07,1.61-1.65,2.34-.36.44-.64.95-.86,1.54l-.43.88-.29.66c-.36.95-.72,1.91-1,2.86h.07Z"/>
  </g>
</svg>