<?xml version="1.0" encoding="UTF-8"?>
<svg id="Layer_1" xmlns="http://www.w3.org/2000/svg" version="1.1" viewBox="0 0 712.73 176.83">
  <!-- Generator: Adobe Illustrator 30.0.0, SVG Export Plug-In . SVG Version: 2.1.1 Build 123)  -->
  <defs>
    <style>
      .st0 {
        fill: #836049;
      }
    </style>
  </defs>
  <g>
    <path class="st0" d="M128.51,125.18c-6.86,6.82-15.78,15.81-22.37,15.81-5.63,0-8.65-3.92-8.65-10.88,0-6.38,2.2-14.79,5.22-23.2-7.41.43-16.74,2.03-24.7,4.35-8.37,29.29-32.11,58.87-55.03,58.87-10.29,0-16.88-5.51-16.88-12.76,0-18.12,32.25-37.12,63.27-46.4,1.65-6.81,2.61-13.48,2.61-19.43,0-17.84-6.04-26.39-21.68-26.39-17.7,0-45.98,17.69-45.98,39.73,0,11.17,8.1,16.24,15.92,16.24,14.69,0,25.39-15.8,25.39-25.67,0-5.66-2.33-6.96-2.33-9.43,0-1.31,1.37-2.9,2.47-2.9,1.24,0,2.75,3.05,2.75,9.28,0,14.21-12.63,30.6-28.68,30.6-8.51,0-17.43-5.51-17.43-18.27,0-24.07,28.27-44.08,52.56-44.08,15.1,0,26.49,9.43,26.49,27.12,0,6.67-1.1,13.92-2.88,21.32,8.37-2.17,17.7-3.48,24.7-3.92,3.98-11.17,9.47-23.64,14.55-31.32,1.78-2.75,3.43-5.22,5.63-5.22,1.65,0,4.39,3.48,4.39,5.07,0,1.74-1.65,2.18-4.94,6.09-3.98,4.79-9.47,14.79-13.04,25.38,8.1.73,10.84,4.35,10.84,6.24,0,.58-.27.87-.69.87-.27,0-.69-.29-.69-1.02,0-1.88-3.16-4.35-9.88-4.64-2.61,8.12-4.67,15.95-4.67,22.19,0,4.93,1.78,7.98,4.67,7.98,5.76,0,12.08-6.24,18.39-12.47l.69.87ZM68.81,113.44c-29.64,9.86-57.78,29-57.78,45.24,0,5.51,4.39,9.86,11.25,9.86,21.55,0,39.53-28.57,46.53-55.1Z"/>
    <path class="st0" d="M173.25,125.18c-6.86,6.82-13.31,10.73-19.9,10.73-3.98,0-7.14-2.32-7.14-6.96,0-2.03.41-4.21,1.1-5.8-7,8.41-14.14,13.92-18.67,13.92-2.33,0-4.53-1.89-4.53-4.79,0-6.38,8.37-11.46,8.37-18.85,0-.87.55-2.03,1.37-2.03,1.92,0,4.8,1.88,4.8,4.64,0,4.64-7.27,10.44-7.27,15.52,0,.87.69,1.6,1.65,1.6,1.78,0,7.27-4.21,13.72-12.18,3.16-3.77,4.53-5.37,6.18-5.37,1.51,0,2.88,1.01,2.88,2.61,0,1.45-.55,2.46-1.37,3.62-1.65,2.46-2.47,4.35-2.47,7.25,0,2.46,1.37,4.21,4.8,4.21s9.47-2.75,15.78-8.99l.69.87Z"/>
    <path class="st0" d="M225.53,125.18c-6.86,6.82-12.49,11.46-17.02,11.46-3.43,0-6.18-2.46-6.18-5.37,0-4.79,2.74-7.83,2.74-10.44,0-.87-.41-1.3-1.1-1.3-1.65,0-5.22,4.21-9.2,11.6-1.78,3.19-2.74,4.21-4.12,4.21-2.2,0-3.43-1.3-3.43-3.04,0-3.48,4.94-12.33,4.94-14.79,0-1.16-.27-1.74-1.1-1.74-5.9,0-16.47,21.32-19.49,21.32-1.51,0-3.16-1.16-3.16-3.33s6.04-10.44,6.04-18.56c0-1.6.55-2.76,2.06-2.76,2.47,0,4.53,1.89,4.53,3.77,0,3.19-1.37,5.66-3.16,10.73,3.29-4.5,10.16-13.78,15.37-13.78,2.2,0,4.25,1.74,4.25,4.06,0,3.19-2.2,7.25-3.16,11.31,3.71-5.95,7.82-12.47,12.21-12.47,1.92,0,3.71,1.16,3.71,3.77s-1.92,7.98-1.92,10.58c0,1.89,1.37,2.76,2.75,2.76,2.74,0,7.55-2.61,13.72-8.85l.69.87Z"/>
    <path class="st0" d="M280.98,125.18c-6.86,6.82-12.35,12.18-17.16,12.18s-6.18-2.9-6.18-5.95c0-3.77,1.51-7.11,1.51-10.73,0-.72-.41-1.16-.82-1.16-1.92,0-5.49,4.5-10.71,11.31-1.37,1.74-2.2,3.62-4.12,3.62-1.65,0-3.02-1.45-3.02-3.19,0-1.16.41-1.74,1.37-3.48,2.2-3.92,4.53-8.85,4.53-10.73,0-.73-.41-1.31-1.1-1.31-2.47,0-11.39,10.15-16.19,16.82-2.47,3.48-2.74,4.79-4.53,4.79-2.06,0-3.71-2.03-3.71-4.21,0-4.21,6.59-12.04,7.82-17.98.27-1.74.69-2.76,2.06-2.76,2.2,0,4.12,2.47,4.12,4.06,0,3.33-4.8,9.42-6.72,14.65,5.08-6.67,14-18.13,19.76-18.13,2.06,0,3.84,1.74,3.84,4.21,0,2.9-2.61,7.25-4.8,12.33,6.18-7.97,10.57-12.91,13.59-12.91,1.78,0,3.29,1.16,3.29,4.06s-.69,5.51-.69,7.69c0,3.19.82,5.22,4.53,5.22,2.47,0,6.45-3.04,12.63-9.28l.69.87Z"/>
    <path class="st0" d="M307.05,125.18c-6.86,6.82-14.41,12.18-21.68,12.18-3.98,0-7.69-1.74-7.69-5.95,0-5.22,5.49-11.02,6.18-15.81.41-2.17,1.92-3.04,3.43-3.04,1.92,0,3.16,1.45,3.16,3.04,0,3.48-6.04,8.7-6.04,15.23,0,2.61,1.51,3.92,4.53,3.92,4.53,0,11.25-4.21,17.43-10.44l.69.87ZM298.41,97.49c0,2.03-2.61,5.07-4.8,5.07-1.23,0-2.47-1.01-2.47-2.46,0-2.61,3.02-5.36,4.67-5.36,1.37,0,2.61,1.16,2.61,2.75Z"/>
    <path class="st0" d="M336.56,141.86c0,.58-1.92,2.03-5.63,2.03-5.08,0-9.61-2.9-9.61-9.28s6.45-12.47,6.45-14.93c0-.87-.27-1.45-1.23-1.45-2.2,0-9.88,4.93-16.61,13.92-2.88,3.77-3.02,4.93-4.67,4.93-1.78,0-3.57-1.6-3.57-3.92,0-4.5,5.35-10.44,6.86-16.82.41-1.74.96-3.92,2.88-3.92s3.71,1.74,3.71,3.77c0,2.46-5.76,11.46-5.9,14.07,7.41-9.43,16.88-15.66,20.59-15.66,3.16,0,4.53,1.88,4.53,4.06,0,3.48-6.59,10.3-6.59,16.82,0,4.5,1.78,6.38,5.49,6.38,1.37,0,2.2-.58,2.75-.58.41,0,.55.14.55.58Z"/>
    <path class="st0" d="M376.08,125.18c-2.88,2.9-5.76,5.8-9.88,9.57-.96,1.01-2.06,1.88-3.02,2.75v1.59c0,23.2-10.98,36.4-21.96,36.4-6.04,0-8.92-3.33-8.92-7.69,0-8.99,13.17-17.69,25.39-27.41v-1.45c0-4.35-.55-10.44-1.37-11.02-4.25,3.19-9.47,7.69-14.14,7.69-2.2,0-4.25-1.74-4.25-4.35,0-8.12,13.04-17.69,20.59-17.69,5.22,0,7.69,2.75,7.69,5.95,0,1.3-.69,2.17-1.65,2.17-.69,0-1.23-.43-1.23-1.16,0-.58.27-.72.27-1.16,0-1.45-1.23-2.32-2.61-2.32-6.04,0-17.43,9.57-17.43,14.36,0,.87.55,1.59,1.37,1.59,2.06,0,6.31-3.04,10.43-6.67,1.51-1.31,3.57-3.62,4.67-3.62s1.51.87,1.78,1.88c.69,3.04,1.1,6.67,1.23,11.46l2.47-2.17c4.12-3.77,7.27-6.67,9.88-9.57l.69.87ZM357.69,142.01c-11.67,9.28-23.06,16.97-23.06,24.8,0,2.61,2.2,4.79,4.94,4.79,8.37,0,17.16-9.43,18.12-29.58Z"/>
    <path class="st0" d="M383.49,139.54c-2.47,0-4.53-1.88-4.53-3.92,0-4.35,7.96-10.15,17.02-14.94,0-2.17-.41-2.9-1.78-2.9-1.65,0-8.78,3.19-14,11.89-1.51,2.32-1.92,2.75-3.02,2.75-1.51,0-2.33-2.46-2.33-6.24,0-23.35,12.9-49.74,23.33-49.74,2.74,0,4.53,1.45,4.53,4.5,0,8.7-11.25,29.58-22.78,41.91-.14,1.02-.14,2.03-.14,4.21,5.21-7.54,13.04-12.33,17.29-12.33,2.47,0,4.39,2.03,4.39,4.5,0,8.85-9.06,20.3-17.98,20.3ZM380.06,120.83c9.61-11.6,20.17-31.03,20.17-38.72,0-1.45-.82-2.03-1.92-2.03-5.21,0-14.96,18.85-18.25,40.75ZM395.84,122.14c-7.69,4.35-14.55,9.42-14.55,12.47,0,.58.55,1.31,1.51,1.31,4.67,0,11.25-6.82,13.04-13.78Z"/>
    <path class="st0" d="M440.99,125.18c-6.86,6.82-13.59,10.44-20.04,10.44-4.94,0-8.92-2.46-8.92-6.96s4.39-9.57,4.39-12.91c0-.72-.41-1.16-1.24-1.16-2.88,0-8.37,1.88-14,4.64l-.14-1.3c7-3.33,13.59-5.51,16.33-5.51,2.88,0,5.08,1.16,5.08,3.92,0,3.63-3.57,7.11-3.57,12.04,0,2.9,1.92,4.93,5.35,4.93,4.53,0,9.74-2.75,16.06-8.99l.69.87ZM429.19,95.6c0,1.31-2.61,5.36-5.35,5.36-1.1,0-1.78-.72-1.78-1.88,0-2.9,3.16-5.95,4.67-5.95,1.37,0,2.47,1.31,2.47,2.47Z"/>
    <path class="st0" d="M443.19,121.12c-1.1-.87-2.33-2.17-2.33-4.06,0-3.19,3.57-6.09,6.59-6.09,1.51,0,2.47,1.16,2.47,2.76,0,1.3-1.1,3.33-3.43,6.24,1.37,3.33,5.22,2.9,5.22,6.09,0,1.88-1.92,3.48-1.92,7.11,0,1.3,1.1,2.17,2.47,2.17,5.49,0,11.25-4.79,17.57-11.02l.69.87c-6.86,6.82-14.69,13.34-21.27,13.34-3.16,0-5.76-1.74-5.76-4.64,0-3.48,3.02-5.8,3.02-8.7,0-1.45-.82-1.74-2.47-3.33l-3.29,3.48-.69-.87,3.16-3.34Z"/>
    <path class="st0" d="M492.59,122.57c0,6.96,2.47,9.14,5.08,9.14,1.1,0,2.06-.44,2.61-.87.41-.29.69-.58.96-.58s.55.29.55.58c0,.43-.27.87-.69,1.3-1.1,1.16-3.29,3.04-6.45,3.04-3.43,0-6.86-2.32-7.27-9.42-7.41,7.4-13.72,12.04-17.29,12.04-2.33,0-4.12-1.59-4.12-4.5,0-8.12,10.71-19.29,18.53-19.29.82,0,2.61.58,3.29,1.01,2.61-18.85,13.72-38.14,21.41-38.14,1.92,0,4.25,2.46,4.25,5.22,0,9.57-12.76,27.55-20.72,37.7-.14,1.01-.14,1.88-.14,2.75ZM487.52,117.06c-.96-.58-1.37-.73-2.33-.73-4.94,0-13.04,9.86-13.04,16.1,0,1.02.55,1.45,1.37,1.45,2.06,0,6.72-3.04,13.72-10.15,0-2.17,0-4.21.27-6.67ZM492.87,117.35c7.27-9.57,18.94-26.97,18.94-34.66,0-1.02-.69-2.03-1.51-2.03-5.08,0-15.23,21.17-17.43,36.69Z"/>
    <path class="st0" d="M601.56,125.18c-6.73,6.82-27.31,28.42-49.41,28.42-10.98,0-23.61-4.79-23.61-23.06,0-34.08,40.07-70.04,66.84-70.04,10.71,0,14.82,5.22,14.82,11.31,0,14.21-15.65,31.61-30.74,31.61-5.63,0-8.1-1.74-8.1-3.62,0-1.16,1.51-2.32,2.75-2.32,2.06,0,2.88,3.34,8.92,3.34,10.16,0,24.84-15.66,24.84-27.84,0-4.93-2.88-9.57-11.25-9.57-23.47,0-58.88,36.4-58.88,65.83,0,15.51,8.37,19.87,17.98,19.87,20.04,0,38.98-18.56,45.15-24.8l.69.87Z"/>
    <path class="st0" d="M640.94,125.18c-6.86,6.82-12.35,10.73-17.16,10.73-4.25,0-8.23-2.75-8.37-8.12-4.94,4.93-11.25,9.86-14.82,9.86-2.33,0-3.98-1.74-3.98-3.92,0-7.83,12.63-21.17,21.68-21.17,5.49,0,7.27,4.06,7.27,5.66,0,1.88-1.23,3.19-2.61,4.35.14.15.27.73.27,1.31,0,1.88-.69,2.32-.69,4.79,0,2.17.96,4.35,4.25,4.35,2.74,0,7.27-2.46,13.45-8.7l.69.87ZM622.28,121.56c.82-1.16,1.1-1.88,1.1-2.9,0-1.16-.96-2.17-2.75-2.17-7.41,0-17.43,11.89-17.43,16.39,0,.58.41,1.16,1.24,1.16,1.65,0,5.63-2.76,10.98-8.27,1.92-2.03,4.12-4.64,5.35-4.64.55,0,1.24.15,1.51.44Z"/>
    <path class="st0" d="M633.53,132.14c0-1.59,2.06-4.21,3.43-4.35,3.71-25.67,16.74-46.11,23.33-46.11,1.65,0,3.43,2.17,3.43,4.35,0,8.7-11.12,27.26-20.59,37.56-.69,3.19-.82,3.92-1.24,6.67,1.24,1.16,5.35,4.93,12.76,4.93,3.71,0,5.9-.43,9.19-1.74l.55,1.16c-3.16,1.31-6.04,2.18-11.39,2.18s-9.61-1.6-10.98-2.18c0,0,4.53,4.93,4.53,14.5,0,16.97-5.21,26.1-9.33,26.1-3.02,0-4.53-2.9-4.53-9.28,0-10.29,1.51-21.75,3.57-30.74-1.51-.72-2.75-1.74-2.75-3.04ZM638.61,163.32c0,6.24.69,7.11,1.65,7.11.82,0,4.8-4.93,4.8-21.17,0-8.55-3.71-12.91-3.71-12.91,0,0-2.75,16.82-2.75,26.97ZM643.83,120.83c8.1-10.15,18.12-27.41,18.12-34.37,0-.58-.69-1.31-1.23-1.31-3.16,0-12.21,15.95-16.88,35.67Z"/>
    <path class="st0" d="M675.94,135.19c4.25,0,6.73-2.17,11.12-5.94.69-.58.96-.87,1.23-.87.41,0,.55.29.55.58s-.27.72-.96,1.45c-4.25,4.5-9.2,7.83-15.23,7.83-4.67,0-9.33-1.89-9.33-7.69,0-8.27,10.02-16.53,16.06-16.53,2.47,0,3.84,2.32,3.84,4.21,0,3.92-7.14,9.71-12.76,13.63.55,1.74,2.33,3.33,5.49,3.33ZM670.17,130.26c5.08-3.33,11.25-8.7,11.25-12.04,0-.73-.55-1.6-1.24-1.6-3.16,0-10.02,6.96-10.02,13.63Z"/>
  </g>
  <path class="st0" d="M690.39,30.41s3.62-7.15,1.91-9.63c0,0,2.22-6.41.86-8.38,0,0,2.99-9.14,2.69-9.71-.89-1.7-10,8.38-20.66,23.7-4.11,5.9-6.93,12.82-11.92,23.11,0,0,7.85-17.01,12.01-24.56,1.18-2.15-.22-2.12-.62-3.67,0,0-.25-4.96-2.41-6.12,0,0-2.03-8.57-4.01-8.72-.46-.04-2.06,2.92-2.62,3.95-3.13,5.81-7.71,30.46-5.77,38.83,0,0-3.23,2.66-7.04-.73-3.81-3.4-10.8-13.43-20.17,4.21,0,0-21.18,9.44-22.06,11.6,0,0,21-8.38,22.04-8.04s12.66,3.13,13.03,4.03c2.52,6.02,15.57,20.54,34.13,14.37,0,0,14.92,24.72,20.35,23.36,5.43-1.36-.4-6.35-.4-6.35,0,0,2.83,2.56,4.28,2.36s.66-5.58-.66-6.35,3.35.25,3.95-.43.47-5.09-1.91-5.84,3.4.31,3.87-.54-1.83-4.57-3.72-5.39,3.07-.22,3.43-1.57c.77-2.93-11.93-7.25-18.51-10.31-6.97-3.24-8.77-6.95-7.87-7.57s1.74-2.25,1.37-2.79,3.17-1.89,2.02-5.87c0,0,4.17-3.16,2.2-7.77,0,0,4.1-5.03,2.22-9.17Z"/>
</svg>